<?xml version="1.0" encoding="utf-8"?>
<!-- Generator: Adobe Illustrator 27.0.0, SVG Export Plug-In . SVG Version: 6.00 Build 0)  -->
<svg version="1.1" id="Layer_1" xmlns="http://www.w3.org/2000/svg" xmlns:xlink="http://www.w3.org/1999/xlink" x="0px" y="0px"
	 viewBox="0 0 720 1024" style="enable-background:new 0 0 720 1024;" xml:space="preserve">
<style type="text/css">
	.st0{clip-path:url(#SVGID_00000049931972063573275370000013254415144561680811_);}
	.st1{fill:#09090A;}
	.st2{clip-path:url(#SVGID_00000010301079625069424010000006581051974816756372_);}
	.st3{fill:#232323;}
	.st4{clip-path:url(#SVGID_00000170237390998598632680000011641323199558248370_);}
	.st5{fill:#1B1B1F;}
	.st6{fill:none;}
	.st7{fill:url(#SVGID_00000136395933360644644720000011266813265224730532_);fill-opacity:0.7;}
	.st8{fill:#FFFFFF;}
	.st9{fill:#FFFFFF;fill-opacity:5.000000e-02;}
	.st10{clip-path:url(#SVGID_00000072268600059948092460000005184058787416500633_);}
	.st11{clip-path:url(#SVGID_00000026163170037958435940000003211889002493183892_);}
	.st12{clip-path:url(#SVGID_00000041258755483986573880000015471629383654969753_);}
	.st13{clip-path:url(#SVGID_00000052086496850856042680000014793230598218032539_);}
	.st14{clip-path:url(#SVGID_00000176030719955035697150000001116463748681974936_);}
	.st15{fill:url(#SVGID_00000132078211959621766490000013867933133522339471_);fill-opacity:0.7;}
	.st16{clip-path:url(#SVGID_00000114070337982253250730000001952629894459395229_);}
	.st17{fill:none;stroke:#FFFFFF;stroke-width:1.4383;stroke-linecap:round;stroke-linejoin:round;}
	.st18{clip-path:url(#SVGID_00000113324924390489851370000002707290931822116498_);}
	.st19{fill:#FAFAFA;}
	.st20{fill:none;stroke:#000000;stroke-width:0.7191;stroke-opacity:9.800000e-02;}
	.st21{clip-path:url(#SVGID_00000134940877909923642740000014841407691922516669_);}
	.st22{fill-rule:evenodd;clip-rule:evenodd;fill:#877EFF;}
	.st23{fill:#EFEFEF;}
	.st24{clip-path:url(#SVGID_00000129199350133227968430000010864487518254703756_);}
	.st25{fill:#877EFF;}
	.st26{clip-path:url(#SVGID_00000079452253797658198230000002369753219558539455_);}
	.st27{fill-rule:evenodd;clip-rule:evenodd;fill:#FFFFFF;}
	.st28{fill:#9BC666;}
	.st29{fill:none;stroke:#D2D3D6;stroke-width:2;stroke-linecap:round;stroke-miterlimit:10;}
	.st30{fill:#8FCDFF;}
	.st31{fill:#DFE6FE;}
	.st32{fill:#E9EBEE;}
	.st33{fill:none;stroke:#97A3CC;stroke-miterlimit:10;}
	.st34{fill:none;stroke:#E9EBEE;stroke-miterlimit:10;}
	.st35{fill:#F8D2A1;}
	.st36{fill:#E9526A;}
	.st37{fill:#30567A;}
	.st38{fill:#DBA87B;}
	.st39{fill:#1F3A49;}
	.st40{fill:none;stroke:#1F3A49;stroke-width:0.75;stroke-miterlimit:10;}
	.st41{fill:#4C89C2;}
	.st42{fill:#3E689E;}
	.st43{fill:#77A6E4;}
</style>
<g>
	<defs>
		<rect id="SVGID_1_" y="0" width="720" height="1024"/>
	</defs>
	<clipPath id="SVGID_00000145058071111888536590000004299135766251361983_">
		<use xlink:href="#SVGID_1_"  style="overflow:visible;"/>
	</clipPath>
	<g style="clip-path:url(#SVGID_00000145058071111888536590000004299135766251361983_);">
		<rect y="0" class="st1" width="720" height="1024"/>
		<g>
			<defs>
				
					<rect id="SVGID_00000114782627365655263520000014074568280523315361_" x="-376" y="174.8" transform="matrix(0.1947 -0.9809 0.9809 0.1947 -294.2115 832.6957)" width="1472.1" height="841.4"/>
			</defs>
			<clipPath id="SVGID_00000000912647842563086070000007621854643914577320_">
				<use xlink:href="#SVGID_00000114782627365655263520000014074568280523315361_"  style="overflow:visible;"/>
			</clipPath>
			<g style="clip-path:url(#SVGID_00000000912647842563086070000007621854643914577320_);">
				
					<rect x="-376" y="174.8" transform="matrix(0.1947 -0.9809 0.9809 0.1947 -294.2115 832.6957)" class="st3" width="1472.1" height="841.4"/>
				<g>
					<defs>
						<path id="SVGID_00000054963089954736323740000004684950062074729365_" d="M235.4,695.1l456.4,90.6c11.7,2.3,19.3,13.7,17,25.4
							l-41.6,209.5c-2.3,11.7-13.7,19.3-25.4,17l-456.4-90.6c-11.7-2.3-19.3-13.7-17-25.4L210,712
							C212.4,700.3,223.7,692.7,235.4,695.1z"/>
					</defs>
					<clipPath id="SVGID_00000088131606299293068210000003136494673947149733_">
						<use xlink:href="#SVGID_00000054963089954736323740000004684950062074729365_"  style="overflow:visible;"/>
					</clipPath>
					<g style="clip-path:url(#SVGID_00000088131606299293068210000003136494673947149733_);">
						<path class="st5" d="M235.4,695.1l456.4,90.6c11.7,2.3,19.3,13.7,17,25.4l-41.6,209.5c-2.3,11.7-13.7,19.3-25.4,17
							l-456.4-90.6c-11.7-2.3-19.3-13.7-17-25.4L210,712C212.4,700.3,223.7,692.7,235.4,695.1z"/>
						<path class="st6" d="M235.4,695.1l456.4,90.6c11.7,2.3,19.3,13.7,17,25.4l-41.6,209.5c-2.3,11.7-13.7,19.3-25.4,17
							l-456.4-90.6c-11.7-2.3-19.3-13.7-17-25.4L210,712C212.4,700.3,223.7,692.7,235.4,695.1z"/>
						
							<linearGradient id="SVGID_00000008111341644153810490000000100667881149826485_" gradientUnits="userSpaceOnUse" x1="425.6462" y1="339.999" x2="425.6462" y2="44.4321" gradientTransform="matrix(0.9809 0.1947 0.1947 -0.9809 -20.1022 990.9809)">
							<stop  offset="0" style="stop-color:#000000;stop-opacity:0"/>
							<stop  offset="1" style="stop-color:#000000"/>
						</linearGradient>
						<polygon style="fill:url(#SVGID_00000008111341644153810490000000100667881149826485_);fill-opacity:0.7;" points="
							214.2,690.9 712.9,789.8 655.4,1079.8 156.7,980.8 						"/>
						<path class="st8" d="M200.6,914.6c0-0.3-0.1-0.5-0.2-0.8c-0.1-0.2-0.2-0.4-0.4-0.6c-0.2-0.2-0.4-0.3-0.6-0.5
							c-0.2-0.1-0.5-0.2-0.8-0.3c-0.6-0.1-1.1-0.1-1.6,0.1c-0.5,0.2-0.9,0.6-1.3,1.1c-0.4,0.5-0.6,1.1-0.8,1.9
							c-0.2,0.8-0.2,1.5,0,2.1c0.1,0.6,0.4,1.1,0.8,1.5c0.4,0.4,0.9,0.6,1.5,0.7c0.5,0.1,1,0.1,1.4,0c0.4-0.1,0.8-0.3,1-0.6
							c0.3-0.3,0.5-0.7,0.6-1.2l0.5,0.2l-2.9-0.6l0.4-1.8l4.7,0.9l-0.3,1.4c-0.2,1-0.6,1.8-1.1,2.4c-0.6,0.6-1.2,1.1-2.1,1.3
							c-0.8,0.2-1.7,0.3-2.6,0.1c-1.1-0.2-1.9-0.6-2.6-1.3c-0.7-0.6-1.2-1.4-1.5-2.4c-0.3-1-0.3-2-0.1-3.2c0.2-0.9,0.5-1.7,0.9-2.4
							c0.4-0.7,0.9-1.2,1.5-1.6s1.2-0.7,1.9-0.8c0.7-0.1,1.4-0.1,2.2,0c0.6,0.1,1.2,0.3,1.7,0.6c0.5,0.3,1,0.7,1.3,1.1
							c0.4,0.4,0.6,0.9,0.8,1.4c0.2,0.5,0.3,1.1,0.2,1.6L200.6,914.6z M206.5,923.8c-0.9-0.2-1.6-0.5-2.1-1
							c-0.5-0.5-0.9-1.1-1.1-1.8c-0.2-0.7-0.2-1.5-0.1-2.4c0.2-0.9,0.5-1.6,1-2.2c0.5-0.6,1-1,1.7-1.2c0.7-0.2,1.5-0.3,2.3-0.1
							c0.9,0.2,1.6,0.5,2.1,1c0.6,0.5,0.9,1.1,1.1,1.8c0.2,0.7,0.2,1.5,0.1,2.4c-0.2,0.9-0.5,1.6-1,2.2c-0.5,0.6-1,1-1.7,1.2
							C208.1,924,207.3,924,206.5,923.8z M206.9,922c0.4,0.1,0.7,0,1-0.1c0.3-0.2,0.6-0.4,0.8-0.8c0.2-0.4,0.4-0.8,0.5-1.3
							c0.1-0.5,0.1-0.9,0.1-1.4c-0.1-0.4-0.2-0.8-0.4-1c-0.2-0.3-0.5-0.5-0.9-0.5c-0.4-0.1-0.7,0-1.1,0.1c-0.3,0.2-0.6,0.4-0.8,0.8
							c-0.2,0.4-0.4,0.8-0.5,1.3c-0.1,0.5-0.1,0.9-0.1,1.4c0.1,0.4,0.2,0.8,0.4,1C206.1,921.8,206.5,922,206.9,922z M218.2,926.2
							c-0.9-0.2-1.6-0.5-2.1-1c-0.5-0.5-0.9-1.1-1.1-1.8c-0.2-0.7-0.2-1.5-0.1-2.4c0.2-0.9,0.5-1.6,1-2.2c0.5-0.6,1-1,1.7-1.2
							c0.7-0.2,1.5-0.3,2.3-0.1c0.9,0.2,1.6,0.5,2.1,1c0.6,0.5,0.9,1.1,1.1,1.8c0.2,0.7,0.2,1.5,0.1,2.4c-0.2,0.9-0.5,1.6-1,2.2
							c-0.5,0.6-1,1-1.7,1.2C219.8,926.3,219,926.3,218.2,926.2z M218.5,924.3c0.4,0.1,0.7,0,1-0.1c0.3-0.2,0.6-0.4,0.8-0.8
							c0.2-0.4,0.4-0.8,0.5-1.3c0.1-0.5,0.1-0.9,0.1-1.4c-0.1-0.4-0.2-0.8-0.4-1c-0.2-0.3-0.5-0.5-0.9-0.5c-0.4-0.1-0.7,0-1.1,0.1
							c-0.3,0.2-0.6,0.4-0.8,0.8c-0.2,0.4-0.4,0.8-0.5,1.3c-0.1,0.5-0.1,0.9-0.1,1.4c0.1,0.4,0.2,0.8,0.4,1
							C217.8,924.1,218.2,924.3,218.5,924.3z M226.5,922.6l-1,4.9l-2.3-0.5l1.7-8.5l2.2,0.4l-0.3,1.5l0.1,0c0.3-0.5,0.7-0.8,1.2-1
							c0.5-0.2,1.1-0.2,1.7-0.1c0.6,0.1,1.1,0.3,1.5,0.7c0.4,0.3,0.7,0.8,0.8,1.3c0.1,0.5,0.2,1.1,0,1.8l-1.1,5.4l-2.3-0.5l1-5
							c0.1-0.5,0.1-0.9-0.2-1.3c-0.2-0.3-0.5-0.6-1-0.7c-0.3-0.1-0.6-0.1-0.9,0c-0.3,0.1-0.5,0.2-0.7,0.5
							C226.7,921.9,226.6,922.2,226.5,922.6z M237.4,930c-0.5-0.1-1-0.3-1.4-0.6c-0.4-0.3-0.7-0.6-0.8-1c-0.2-0.4-0.2-0.9-0.1-1.5
							c0.1-0.5,0.3-0.8,0.5-1.1c0.2-0.3,0.5-0.5,0.9-0.6c0.3-0.1,0.7-0.2,1.1-0.2c0.4,0,0.8,0,1.2,0c0.5,0,0.9,0.1,1.2,0.1
							c0.3,0,0.5,0,0.7-0.1c0.2-0.1,0.2-0.2,0.3-0.4l0,0c0.1-0.3,0-0.6-0.2-0.9c-0.2-0.2-0.5-0.4-0.9-0.5c-0.4-0.1-0.8-0.1-1.1,0.1
							c-0.3,0.1-0.5,0.3-0.6,0.6l-2.1-0.6c0.2-0.5,0.5-0.9,0.9-1.2c0.4-0.3,0.9-0.5,1.4-0.6c0.6-0.1,1.2-0.1,1.8,0
							c0.5,0.1,0.9,0.2,1.3,0.4c0.4,0.2,0.8,0.4,1,0.7c0.3,0.3,0.5,0.6,0.6,1.1c0.1,0.4,0.1,0.8,0,1.4l-1.1,5.7l-2.2-0.4l0.2-1.2
							l-0.1,0c-0.2,0.2-0.4,0.4-0.7,0.6c-0.3,0.2-0.6,0.3-0.9,0.3C238.2,930.1,237.8,930.1,237.4,930z M238.4,928.5
							c0.3,0.1,0.7,0.1,1,0c0.3-0.1,0.5-0.2,0.7-0.4c0.2-0.2,0.3-0.5,0.4-0.8l0.2-0.9c-0.1,0-0.2,0.1-0.3,0.1c-0.1,0-0.3,0-0.4,0
							c-0.2,0-0.3,0-0.5,0c-0.2,0-0.3,0-0.4,0c-0.3,0-0.5,0-0.8,0c-0.2,0-0.4,0.1-0.5,0.3c-0.1,0.1-0.2,0.3-0.3,0.5
							c-0.1,0.3,0,0.6,0.2,0.8C237.8,928.3,238,928.4,238.4,928.5z M252.4,924l-0.4,1.8l-5.1-1l0.4-1.8L252.4,924z M248.9,921.2
							l2.3,0.5l-1.6,7.9c0,0.2,0,0.4,0,0.5c0,0.1,0.1,0.2,0.2,0.3c0.1,0.1,0.2,0.1,0.4,0.2c0.1,0,0.2,0,0.3,0c0.1,0,0.2,0,0.3,0
							l0,1.8c-0.1,0-0.3,0-0.5,0c-0.2,0-0.5,0-0.8-0.1c-0.6-0.1-1.1-0.3-1.4-0.5c-0.4-0.3-0.7-0.6-0.8-1c-0.2-0.4-0.2-0.9-0.1-1.4
							L248.9,921.2z M251.5,932.6l1.7-8.5l2.3,0.5l-0.3,1.5l0.1,0c0.3-0.5,0.6-0.8,1-1c0.4-0.2,0.9-0.3,1.3-0.2
							c0.1,0,0.2,0.1,0.4,0.1c0.1,0,0.2,0.1,0.3,0.1l-0.4,2.1c-0.1-0.1-0.2-0.1-0.4-0.2c-0.2-0.1-0.4-0.1-0.5-0.1
							c-0.3-0.1-0.7-0.1-1,0c-0.3,0.1-0.6,0.3-0.8,0.5c-0.2,0.2-0.3,0.5-0.4,0.9l-1,4.8L251.5,932.6z M257.2,933.7l1.7-8.5l2.3,0.5
							l-1.7,8.5L257.2,933.7z M260.3,924.4c-0.3-0.1-0.6-0.2-0.8-0.5c-0.2-0.3-0.3-0.6-0.2-0.9c0.1-0.3,0.2-0.6,0.5-0.8
							c0.3-0.2,0.6-0.2,1-0.2c0.3,0.1,0.6,0.2,0.8,0.5c0.2,0.3,0.3,0.6,0.2,0.9c-0.1,0.3-0.2,0.6-0.5,0.8
							C260.9,924.4,260.6,924.5,260.3,924.4z M260.1,937.6l2.3-11.6l2.3,0.5l-0.3,1.4l0.1,0c0.1-0.2,0.3-0.4,0.6-0.6
							c0.2-0.2,0.5-0.3,0.9-0.4c0.4-0.1,0.8-0.1,1.2,0c0.6,0.1,1.2,0.4,1.6,0.8c0.5,0.4,0.8,1,1,1.7c0.2,0.7,0.2,1.5,0,2.5
							c-0.2,0.9-0.5,1.7-0.9,2.3c-0.4,0.6-0.9,1-1.5,1.2c-0.6,0.2-1.2,0.3-1.8,0.2c-0.5-0.1-0.8-0.2-1.1-0.5
							c-0.3-0.2-0.5-0.5-0.7-0.7c-0.2-0.3-0.3-0.5-0.3-0.8l-0.1,0l-0.9,4.5L260.1,937.6z M263.8,930.7c-0.1,0.5-0.1,1-0.1,1.4
							c0.1,0.4,0.2,0.7,0.4,1c0.2,0.3,0.5,0.4,0.9,0.5c0.4,0.1,0.7,0,1-0.1c0.3-0.2,0.6-0.4,0.8-0.8c0.2-0.3,0.4-0.8,0.5-1.3
							c0.1-0.5,0.1-0.9,0.1-1.3c-0.1-0.4-0.2-0.7-0.4-1s-0.5-0.4-0.9-0.5c-0.4-0.1-0.7,0-1,0.1c-0.3,0.1-0.6,0.4-0.8,0.7
							C264.1,929.7,263.9,930.2,263.8,930.7z M274.4,937.2l-0.6-8.9l2.4,0.5l0.2,5.9l0.1,0l2.5-5.4l2.3,0.5l0.3,5.9l0.1,0l2.4-5.4
							l2.4,0.5l-4,8l-2.5-0.5l-0.4-5.6l-0.1,0l-2.5,5L274.4,937.2z M285.2,939.3l1.7-8.5l2.3,0.5l-1.7,8.5L285.2,939.3z M288.3,930
							c-0.3-0.1-0.6-0.2-0.8-0.5c-0.2-0.3-0.3-0.6-0.2-0.9c0.1-0.3,0.2-0.6,0.5-0.8c0.3-0.2,0.6-0.2,1-0.2c0.3,0.1,0.6,0.2,0.8,0.5
							c0.2,0.3,0.3,0.6,0.2,0.9c-0.1,0.3-0.2,0.6-0.5,0.8C288.9,930,288.6,930,288.3,930z M294.9,932.4l-0.4,1.8l-5.1-1l0.4-1.8
							L294.9,932.4z M291.4,929.6l2.3,0.5l-1.6,7.9c0,0.2,0,0.4,0,0.5c0,0.1,0.1,0.2,0.2,0.3c0.1,0.1,0.2,0.1,0.4,0.2
							c0.1,0,0.2,0,0.3,0c0.1,0,0.2,0,0.3,0l0,1.8c-0.1,0-0.3,0-0.5,0c-0.2,0-0.5,0-0.8-0.1c-0.6-0.1-1.1-0.3-1.4-0.5
							c-0.4-0.3-0.7-0.6-0.8-1c-0.2-0.4-0.2-0.9-0.1-1.4L291.4,929.6z M297.6,936.7l-1,4.9l-2.3-0.5l2.2-11.3l2.3,0.5l-0.9,4.3
							l0.1,0c0.3-0.5,0.7-0.8,1.2-1c0.5-0.2,1-0.2,1.7-0.1c0.6,0.1,1.1,0.3,1.5,0.7c0.4,0.3,0.7,0.8,0.8,1.3c0.2,0.5,0.2,1.1,0,1.8
							l-1.1,5.4l-2.3-0.5l1-5c0.1-0.5,0.1-1-0.2-1.3c-0.2-0.3-0.5-0.6-1-0.7c-0.3-0.1-0.6-0.1-0.9,0c-0.3,0.1-0.5,0.2-0.7,0.5
							C297.8,936,297.6,936.3,297.6,936.7z M312.3,935.9l-0.4,1.8l-5.2-1l0.4-1.8L312.3,935.9z M306.6,943.5l1.8-9.1
							c0.1-0.6,0.3-1.1,0.7-1.5c0.3-0.4,0.7-0.6,1.2-0.7c0.5-0.1,1-0.1,1.5,0c0.4,0.1,0.7,0.2,1,0.3c0.3,0.1,0.5,0.2,0.6,0.3
							l-0.8,1.7c-0.1,0-0.2-0.1-0.3-0.1c-0.1-0.1-0.3-0.1-0.4-0.1c-0.3-0.1-0.6,0-0.8,0.1c-0.2,0.1-0.3,0.3-0.3,0.6l-1.8,9
							L306.6,943.5z M311.4,944.5l1.7-8.5l2.3,0.5L315,938l0.1,0c0.3-0.5,0.6-0.8,1-1c0.4-0.2,0.9-0.3,1.3-0.2
							c0.1,0,0.2,0.1,0.4,0.1c0.1,0,0.2,0.1,0.3,0.1l-0.4,2.1c-0.1-0.1-0.2-0.1-0.4-0.2c-0.2-0.1-0.4-0.1-0.5-0.1
							c-0.3-0.1-0.7-0.1-1,0c-0.3,0.1-0.6,0.3-0.8,0.5c-0.2,0.2-0.3,0.5-0.4,0.9l-1,4.8L311.4,944.5z M317,945.6l1.7-8.5l2.3,0.5
							l-1.7,8.5L317,945.6z M320.1,936.3c-0.3-0.1-0.6-0.2-0.8-0.5c-0.2-0.3-0.3-0.6-0.2-0.9c0.1-0.3,0.2-0.6,0.5-0.8
							c0.3-0.2,0.6-0.2,1-0.2c0.3,0.1,0.6,0.2,0.8,0.5c0.2,0.3,0.3,0.6,0.2,0.9c-0.1,0.3-0.2,0.6-0.5,0.8
							C320.8,936.3,320.4,936.4,320.1,936.3z M324.4,947.2c-0.9-0.2-1.6-0.5-2.1-1c-0.6-0.5-0.9-1.1-1.1-1.8c-0.2-0.7-0.2-1.5,0-2.4
							c0.2-0.9,0.5-1.6,1-2.2c0.5-0.6,1-1,1.7-1.3c0.7-0.2,1.5-0.3,2.3-0.1c0.6,0.1,1.1,0.3,1.5,0.6c0.4,0.3,0.8,0.6,1.1,1.1
							c0.3,0.4,0.5,0.9,0.6,1.5c0.1,0.6,0.1,1.2-0.1,1.9l-0.1,0.6l-7.1-1.4l0.3-1.5l4.9,1c0.1-0.3,0.1-0.7,0-0.9s-0.3-0.5-0.5-0.7
							c-0.2-0.2-0.5-0.3-0.9-0.4c-0.4-0.1-0.7-0.1-1,0.1c-0.3,0.1-0.6,0.3-0.8,0.5c-0.2,0.2-0.3,0.5-0.4,0.9l-0.3,1.4
							c-0.1,0.4-0.1,0.8,0,1.1c0.1,0.3,0.3,0.6,0.5,0.8c0.3,0.2,0.6,0.4,1,0.5c0.3,0.1,0.5,0.1,0.7,0c0.2,0,0.4-0.1,0.6-0.2
							c0.2-0.1,0.3-0.3,0.5-0.5l2.1,0.6c-0.2,0.5-0.5,0.9-0.9,1.2c-0.4,0.3-0.9,0.5-1.5,0.6C325.7,947.4,325.1,947.4,324.4,947.2z
							 M332.4,943.6l-1,4.9l-2.3-0.5l1.7-8.5l2.2,0.4l-0.3,1.5l0.1,0c0.3-0.5,0.7-0.8,1.2-1c0.5-0.2,1.1-0.2,1.7-0.1
							c0.6,0.1,1.1,0.3,1.5,0.7c0.4,0.3,0.7,0.8,0.8,1.3c0.1,0.5,0.2,1.1,0,1.8l-1.1,5.4l-2.3-0.5l1-5c0.1-0.5,0.1-0.9-0.2-1.3
							c-0.2-0.3-0.6-0.6-1-0.7c-0.3-0.1-0.6,0-0.9,0c-0.3,0.1-0.5,0.2-0.7,0.5C332.6,942.9,332.5,943.2,332.4,943.6z M341.2,950.5
							c-0.6-0.1-1.2-0.4-1.6-0.8c-0.5-0.4-0.8-1-0.9-1.7c-0.2-0.7-0.2-1.5,0-2.5c0.2-1,0.5-1.7,0.9-2.3c0.4-0.6,1-1,1.5-1.2
							c0.6-0.2,1.2-0.3,1.8-0.1c0.5,0.1,0.9,0.3,1.1,0.5c0.3,0.2,0.5,0.5,0.7,0.7c0.2,0.3,0.3,0.5,0.3,0.8l0.1,0l0.8-4.2l2.3,0.5
							l-2.2,11.3l-2.3-0.5l0.3-1.4l-0.1,0c-0.2,0.2-0.4,0.4-0.6,0.6c-0.2,0.2-0.5,0.3-0.9,0.4C342,950.6,341.6,950.6,341.2,950.5z
							 M342.3,948.8c0.4,0.1,0.7,0,1-0.1c0.3-0.2,0.6-0.4,0.8-0.8c0.2-0.3,0.4-0.8,0.5-1.3c0.1-0.5,0.1-1,0.1-1.4
							c-0.1-0.4-0.2-0.7-0.4-1c-0.2-0.3-0.5-0.4-0.9-0.5c-0.4-0.1-0.7,0-1,0.1s-0.6,0.4-0.8,0.8c-0.2,0.3-0.4,0.8-0.5,1.2
							c-0.1,0.5-0.1,0.9-0.1,1.3c0.1,0.4,0.2,0.7,0.4,1C341.6,948.6,341.9,948.8,342.3,948.8z M355.5,947l-2.2-0.3
							c0-0.2,0-0.4-0.1-0.5c-0.1-0.2-0.2-0.3-0.4-0.5c-0.2-0.1-0.4-0.2-0.7-0.3c-0.4-0.1-0.7-0.1-1,0c-0.3,0.1-0.4,0.3-0.5,0.5
							c0,0.2,0,0.4,0.1,0.6c0.1,0.2,0.4,0.3,0.8,0.5l1.5,0.6c0.8,0.3,1.3,0.7,1.7,1.2s0.4,1,0.3,1.6c-0.1,0.6-0.4,1-0.8,1.4
							c-0.4,0.4-0.9,0.6-1.5,0.7c-0.6,0.1-1.3,0.1-2,0c-1.1-0.2-2-0.6-2.5-1.2c-0.6-0.6-0.8-1.3-0.8-2.1l2.3,0.3
							c0,0.4,0.1,0.6,0.4,0.9c0.2,0.2,0.6,0.4,1,0.5c0.4,0.1,0.8,0.1,1,0c0.3-0.1,0.5-0.3,0.5-0.5c0-0.2,0-0.4-0.2-0.6
							c-0.1-0.2-0.4-0.3-0.8-0.5l-1.4-0.6c-0.8-0.3-1.4-0.7-1.7-1.2c-0.3-0.5-0.4-1-0.3-1.7c0.1-0.5,0.3-1,0.7-1.3
							c0.4-0.3,0.9-0.6,1.4-0.7c0.6-0.1,1.2-0.1,2,0.1c1.1,0.2,1.9,0.6,2.4,1.2C355.3,945.5,355.5,946.2,355.5,947z"/>
						<g>
							<path class="st9" d="M598.9,984.4l45.7,9.1c3.1,0.6,5.1,3.6,4.5,6.8l-2,9.9c-0.6,3.1-3.6,5.1-6.8,4.5l-45.7-9.1
								c-3.1-0.6-5.1-3.6-4.5-6.8l2-9.9C592.8,985.8,595.8,983.8,598.9,984.4z"/>
							<path class="st8" d="M603.5,993.5l0.6,5.2l0.1,0l2.6-4.5l1.2,0.2l-3.4,5.7l-1.4-0.3l-0.9-6.6L603.5,993.5z M607.5,1000.7
								l0.9-4.6l1.1,0.2l-0.9,4.6L607.5,1000.7z M609.1,995.6c-0.2,0-0.3-0.1-0.4-0.3c-0.1-0.1-0.1-0.3-0.1-0.5
								c0-0.2,0.1-0.3,0.3-0.4c0.1-0.1,0.3-0.1,0.5-0.1c0.2,0,0.3,0.1,0.4,0.3c0.1,0.1,0.1,0.3,0.1,0.5c0,0.2-0.1,0.3-0.3,0.4
								C609.4,995.6,609.3,995.6,609.1,995.6z M614,998.5l-1-0.1c0-0.1,0-0.2-0.1-0.3c0-0.1-0.1-0.2-0.2-0.3
								c-0.1-0.1-0.2-0.1-0.4-0.2c-0.2,0-0.4,0-0.6,0c-0.2,0.1-0.3,0.2-0.3,0.3c0,0.1,0,0.3,0.1,0.4c0.1,0.1,0.2,0.2,0.5,0.3
								l0.8,0.3c0.4,0.2,0.7,0.4,0.9,0.6c0.2,0.2,0.2,0.5,0.2,0.9c-0.1,0.3-0.2,0.5-0.4,0.7c-0.2,0.2-0.5,0.3-0.8,0.4
								c-0.3,0.1-0.7,0.1-1.1,0c-0.6-0.1-1-0.3-1.3-0.6c-0.3-0.3-0.4-0.7-0.4-1.1l1.1,0.1c0,0.2,0.1,0.4,0.2,0.5
								c0.1,0.1,0.3,0.2,0.6,0.3c0.3,0,0.5,0,0.7,0c0.2-0.1,0.3-0.2,0.3-0.3c0-0.1,0-0.2-0.1-0.4c-0.1-0.1-0.2-0.2-0.4-0.3l-0.8-0.3
								c-0.4-0.2-0.7-0.4-0.9-0.7c-0.2-0.3-0.2-0.6-0.1-0.9c0.1-0.3,0.2-0.5,0.4-0.7c0.2-0.2,0.5-0.3,0.8-0.4c0.3-0.1,0.6-0.1,1,0
								c0.5,0.1,0.9,0.3,1.2,0.6C613.9,997.7,614,998.1,614,998.5z M614.3,1002.1l0.9-4.6l1.1,0.2l-0.9,4.6L614.3,1002.1z
								 M615.9,996.9c-0.2,0-0.3-0.1-0.4-0.3c-0.1-0.1-0.1-0.3-0.1-0.5c0-0.2,0.1-0.3,0.3-0.4c0.1-0.1,0.3-0.1,0.5-0.1
								c0.2,0,0.3,0.1,0.4,0.3c0.1,0.1,0.1,0.3,0.1,0.5c0,0.2-0.1,0.3-0.3,0.4C616.3,996.9,616.1,997,615.9,996.9z M619.8,998.4
								l-0.2,0.8l-2.7-0.5l0.2-0.8L619.8,998.4z M618,996.9l1.1,0.2l-0.9,4.3c0,0.1,0,0.3,0,0.4c0,0.1,0.1,0.1,0.1,0.2
								c0.1,0,0.1,0.1,0.2,0.1c0.1,0,0.1,0,0.2,0c0.1,0,0.1,0,0.1,0l0,0.9c-0.1,0-0.1,0-0.3,0c-0.1,0-0.2,0-0.4,0
								c-0.3,0-0.5-0.1-0.7-0.3c-0.2-0.1-0.3-0.3-0.4-0.5c-0.1-0.2-0.1-0.5,0-0.8L618,996.9z M626.2,999.8c0-0.3-0.1-0.5-0.2-0.7
								c-0.2-0.2-0.4-0.3-0.8-0.4c-0.2,0-0.4-0.1-0.6,0c-0.2,0-0.3,0.1-0.4,0.2c-0.1,0.1-0.2,0.2-0.2,0.4c0,0.1,0,0.2,0,0.4
								c0,0.1,0.1,0.2,0.2,0.3c0.1,0.1,0.2,0.2,0.3,0.2c0.1,0.1,0.2,0.1,0.4,0.2l0.5,0.3c0.2,0.1,0.4,0.2,0.6,0.3
								c0.2,0.1,0.4,0.3,0.5,0.5c0.1,0.2,0.2,0.4,0.3,0.6c0.1,0.2,0.1,0.5,0,0.7c-0.1,0.4-0.2,0.7-0.5,0.9c-0.2,0.2-0.5,0.4-0.9,0.5
								c-0.4,0.1-0.8,0.1-1.3,0c-0.5-0.1-0.9-0.3-1.2-0.5c-0.3-0.2-0.6-0.5-0.7-0.8c-0.1-0.3-0.2-0.7-0.1-1.1l1.1,0.2
								c0,0.2,0,0.4,0.1,0.6c0.1,0.2,0.2,0.3,0.4,0.4c0.2,0.1,0.4,0.2,0.6,0.2c0.2,0,0.5,0.1,0.7,0c0.2,0,0.4-0.1,0.5-0.2
								s0.2-0.3,0.3-0.4c0-0.2,0-0.3-0.1-0.4c-0.1-0.1-0.2-0.2-0.3-0.3c-0.2-0.1-0.3-0.2-0.5-0.3l-0.7-0.3c-0.5-0.2-0.8-0.5-1.1-0.8
								c-0.2-0.3-0.3-0.7-0.2-1.1c0.1-0.4,0.2-0.7,0.5-0.9c0.3-0.2,0.6-0.4,0.9-0.5c0.4-0.1,0.8-0.1,1.2,0c0.4,0.1,0.8,0.2,1.1,0.5
								c0.3,0.2,0.5,0.5,0.7,0.8c0.1,0.3,0.2,0.6,0.1,1L626.2,999.8z M627.4,1004.7l0.9-4.6l1.1,0.2l-0.9,4.6L627.4,1004.7z
								 M629,999.5c-0.2,0-0.3-0.1-0.4-0.3c-0.1-0.1-0.1-0.3-0.1-0.5c0-0.2,0.1-0.3,0.3-0.4c0.1-0.1,0.3-0.1,0.5-0.1
								c0.2,0,0.3,0.1,0.4,0.3c0.1,0.1,0.1,0.3,0.1,0.5c0,0.2-0.1,0.3-0.3,0.4C629.3,999.5,629.1,999.5,629,999.5z M632.8,1000.9
								l-0.2,0.8l-2.7-0.5l0.2-0.8L632.8,1000.9z M631,999.4l1.1,0.2l-0.9,4.3c0,0.2,0,0.3,0,0.4c0,0.1,0.1,0.1,0.1,0.2
								c0.1,0,0.1,0.1,0.2,0.1c0.1,0,0.1,0,0.2,0c0.1,0,0.1,0,0.1,0l0,0.9c-0.1,0-0.1,0-0.3,0c-0.1,0-0.2,0-0.4,0
								c-0.3,0-0.5-0.1-0.7-0.3c-0.2-0.1-0.3-0.3-0.4-0.5c-0.1-0.2-0.1-0.5,0-0.8L631,999.4z M634.8,1006.2
								c-0.5-0.1-0.8-0.3-1.1-0.5c-0.3-0.3-0.5-0.6-0.6-1c-0.1-0.4-0.1-0.8,0-1.3c0.1-0.5,0.3-0.9,0.5-1.2c0.3-0.3,0.6-0.6,0.9-0.7
								c0.4-0.1,0.8-0.2,1.2-0.1c0.3,0.1,0.5,0.1,0.8,0.3c0.2,0.1,0.4,0.3,0.6,0.5c0.2,0.2,0.3,0.5,0.3,0.8s0,0.7,0,1.1l-0.1,0.3
								l-3.8-0.8l0.1-0.7l2.7,0.5c0-0.2,0-0.4,0-0.6c-0.1-0.2-0.2-0.3-0.3-0.5c-0.1-0.1-0.3-0.2-0.5-0.2c-0.2,0-0.4,0-0.6,0
								c-0.2,0.1-0.3,0.2-0.5,0.3c-0.1,0.2-0.2,0.3-0.3,0.5l-0.1,0.6c-0.1,0.3,0,0.5,0,0.7c0.1,0.2,0.2,0.4,0.3,0.5
								c0.2,0.1,0.4,0.2,0.6,0.3c0.2,0,0.3,0,0.4,0c0.1,0,0.3-0.1,0.4-0.1c0.1-0.1,0.2-0.2,0.3-0.3l1,0.3c-0.1,0.2-0.3,0.5-0.5,0.6
								c-0.2,0.2-0.5,0.3-0.8,0.3C635.5,1006.3,635.1,1006.3,634.8,1006.2z"/>
						</g>
						<g>
							<path class="st9" d="M236.8,717.3l55.2,11c3.1,0.6,5.1,3.6,4.5,6.8l-1.7,8.5c-0.6,3.1-3.6,5.1-6.8,4.5l-55.2-11
								c-3.1-0.6-5.1-3.6-4.5-6.8l1.7-8.5C230.7,718.8,233.7,716.7,236.8,717.3z"/>
							<path class="st8" d="M237.9,730.4l-1-0.2l2.8-4.8l1.1,0.2l0.8,5.5l-1-0.2l-0.6-4.4l0,0L237.9,730.4z M238.3,728.4l2.7,0.5
								l-0.1,0.7l-2.7-0.5L238.3,728.4z M243.6,731.6c-0.3-0.1-0.6-0.2-0.8-0.4c-0.2-0.2-0.4-0.5-0.4-0.8c-0.1-0.3-0.1-0.7,0-1.1
								c0.1-0.4,0.2-0.8,0.4-1c0.2-0.3,0.4-0.5,0.7-0.6c0.3-0.1,0.6-0.1,0.8-0.1c0.2,0,0.4,0.1,0.5,0.2c0.1,0.1,0.2,0.2,0.3,0.3
								c0.1,0.1,0.1,0.2,0.1,0.3l0,0l0.4-1.9l0.9,0.2l-1,5.1l-0.9-0.2l0.1-0.6l-0.1,0c-0.1,0.1-0.2,0.2-0.3,0.3
								c-0.1,0.1-0.2,0.2-0.4,0.2C244,731.6,243.8,731.6,243.6,731.6z M244,730.9c0.2,0,0.4,0,0.5-0.1c0.2-0.1,0.3-0.2,0.4-0.4
								c0.1-0.2,0.2-0.4,0.2-0.6c0.1-0.2,0.1-0.5,0-0.7c0-0.2-0.1-0.4-0.2-0.5c-0.1-0.1-0.3-0.2-0.5-0.3c-0.2,0-0.4,0-0.5,0.1
								c-0.2,0.1-0.3,0.2-0.4,0.4c-0.1,0.2-0.2,0.4-0.2,0.6c0,0.2-0.1,0.5,0,0.7c0,0.2,0.1,0.4,0.2,0.5
								C243.6,730.8,243.8,730.9,244,730.9z M250.8,729l-2.1,3.6l-1-0.2l-0.6-4.1l1,0.2l0.3,3l0,0l1.5-2.7L250.8,729z M252.2,733.3
								c-0.4-0.1-0.7-0.2-1-0.4c-0.2-0.2-0.4-0.5-0.5-0.8c-0.1-0.3-0.1-0.7,0-1.1c0.1-0.4,0.2-0.7,0.4-1c0.2-0.3,0.5-0.5,0.8-0.6
								c0.3-0.1,0.6-0.1,1-0.1c0.2,0,0.5,0.1,0.6,0.2c0.2,0.1,0.4,0.3,0.5,0.5c0.1,0.2,0.2,0.4,0.3,0.7c0,0.3,0,0.6,0,0.9l-0.1,0.3
								l-3.2-0.6l0.1-0.6l2.3,0.5c0-0.2,0-0.3,0-0.5c0-0.2-0.1-0.3-0.2-0.4c-0.1-0.1-0.3-0.2-0.4-0.2c-0.2,0-0.4,0-0.5,0
								c-0.2,0.1-0.3,0.2-0.4,0.3c-0.1,0.1-0.2,0.3-0.2,0.5l-0.1,0.5c0,0.2,0,0.4,0,0.6c0.1,0.2,0.1,0.3,0.3,0.4
								c0.1,0.1,0.3,0.2,0.5,0.2c0.1,0,0.3,0,0.4,0c0.1,0,0.2-0.1,0.3-0.1c0.1-0.1,0.2-0.1,0.2-0.2l0.8,0.3
								c-0.1,0.2-0.2,0.4-0.4,0.5c-0.2,0.1-0.4,0.2-0.6,0.3C252.8,733.4,252.5,733.4,252.2,733.3z M254.7,733.7l0.8-3.8l0.9,0.2
								l-0.1,0.6l0,0c0.1-0.2,0.3-0.4,0.5-0.4c0.2-0.1,0.4-0.1,0.6-0.1c0.1,0,0.1,0,0.2,0c0.1,0,0.1,0,0.2,0l-0.2,0.8
								c0,0-0.1,0-0.2-0.1c-0.1,0-0.2,0-0.2-0.1c-0.2,0-0.3,0-0.5,0c-0.1,0-0.3,0.1-0.4,0.2c-0.1,0.1-0.2,0.2-0.2,0.4l-0.4,2.3
								L254.7,733.7z M260.4,730.9l-0.1,0.7l-2.2-0.4l0.1-0.7L260.4,730.9z M258.9,729.6l0.9,0.2l-0.7,3.6c0,0.1,0,0.2,0,0.3
								c0,0.1,0.1,0.1,0.1,0.2c0.1,0,0.1,0.1,0.2,0.1c0.1,0,0.1,0,0.2,0c0.1,0,0.1,0,0.1,0l0,0.7c-0.1,0-0.1,0-0.2,0
								c-0.1,0-0.2,0-0.3,0c-0.2,0-0.4-0.1-0.6-0.2c-0.2-0.1-0.3-0.3-0.4-0.4c-0.1-0.2-0.1-0.4,0-0.6L258.9,729.6z M260.4,734.9
								l0.8-3.8l0.9,0.2l-0.8,3.8L260.4,734.9z M261.7,730.6c-0.1,0-0.3-0.1-0.3-0.2c-0.1-0.1-0.1-0.2-0.1-0.4
								c0-0.1,0.1-0.2,0.2-0.3c0.1-0.1,0.3-0.1,0.4-0.1c0.1,0,0.3,0.1,0.3,0.2c0.1,0.1,0.1,0.2,0.1,0.4c0,0.1-0.1,0.2-0.2,0.3
								C262,730.6,261.9,730.6,261.7,730.6z M265.8,733l-0.8-0.1c0-0.1,0-0.2-0.1-0.3c0-0.1-0.1-0.2-0.2-0.2
								c-0.1-0.1-0.2-0.1-0.3-0.1c-0.2,0-0.4,0-0.5,0c-0.1,0.1-0.2,0.1-0.3,0.3c0,0.1,0,0.2,0.1,0.3c0.1,0.1,0.2,0.2,0.4,0.3
								l0.6,0.3c0.3,0.2,0.6,0.3,0.7,0.5c0.1,0.2,0.2,0.4,0.1,0.7c0,0.2-0.2,0.4-0.3,0.6c-0.2,0.2-0.4,0.3-0.7,0.3
								c-0.3,0.1-0.6,0-0.9,0c-0.5-0.1-0.8-0.3-1.1-0.5c-0.2-0.3-0.4-0.6-0.3-0.9l0.9,0.1c0,0.2,0.1,0.3,0.2,0.4
								c0.1,0.1,0.3,0.2,0.5,0.2c0.2,0,0.4,0,0.5,0c0.1-0.1,0.2-0.2,0.3-0.3c0-0.1,0-0.2-0.1-0.3c-0.1-0.1-0.2-0.2-0.4-0.2l-0.6-0.3
								c-0.4-0.2-0.6-0.3-0.7-0.6c-0.1-0.2-0.2-0.5-0.1-0.7c0-0.2,0.1-0.4,0.3-0.6c0.2-0.1,0.4-0.2,0.6-0.3c0.3,0,0.5,0,0.8,0
								c0.5,0.1,0.8,0.3,1,0.5C265.7,732.4,265.8,732.7,265.8,733z M267.8,736.4c-0.4-0.1-0.7-0.2-1-0.4c-0.2-0.2-0.4-0.5-0.5-0.8
								c-0.1-0.3-0.1-0.7,0-1.1c0.1-0.4,0.2-0.7,0.4-1c0.2-0.3,0.5-0.5,0.8-0.6c0.3-0.1,0.6-0.1,1-0.1c0.2,0,0.5,0.1,0.6,0.2
								c0.2,0.1,0.4,0.3,0.5,0.5c0.1,0.2,0.2,0.4,0.3,0.7c0,0.3,0,0.6,0,0.9l-0.1,0.3l-3.2-0.6l0.1-0.6l2.3,0.5c0-0.2,0-0.3,0-0.5
								c0-0.2-0.1-0.3-0.2-0.4c-0.1-0.1-0.3-0.2-0.4-0.2c-0.2,0-0.4,0-0.5,0c-0.2,0.1-0.3,0.2-0.4,0.3c-0.1,0.1-0.2,0.3-0.2,0.5
								l-0.1,0.5c0,0.2,0,0.4,0,0.6c0,0.2,0.1,0.3,0.3,0.4c0.1,0.1,0.3,0.2,0.5,0.2c0.1,0,0.3,0,0.4,0c0.1,0,0.2-0.1,0.3-0.1
								c0.1-0.1,0.2-0.1,0.2-0.2l0.8,0.3c-0.1,0.2-0.2,0.4-0.4,0.5c-0.2,0.1-0.4,0.2-0.6,0.3C268.4,736.5,268.1,736.5,267.8,736.4z
								 M270.3,736.8l0.8-3.8l0.9,0.2l-0.1,0.7l0,0c0.1-0.2,0.3-0.4,0.5-0.4c0.2-0.1,0.4-0.1,0.7-0.1c0.3,0.1,0.5,0.2,0.6,0.3
								c0.2,0.2,0.2,0.4,0.3,0.6l0,0c0.1-0.2,0.3-0.3,0.5-0.4c0.2-0.1,0.5-0.1,0.8,0c0.4,0.1,0.6,0.2,0.8,0.5c0.2,0.3,0.2,0.6,0.1,1
								l-0.5,2.6l-0.9-0.2l0.5-2.4c0-0.2,0-0.4-0.1-0.6c-0.1-0.1-0.2-0.2-0.4-0.3c-0.2,0-0.4,0-0.6,0.1c-0.1,0.1-0.2,0.3-0.3,0.5
								l-0.5,2.4l-0.9-0.2l0.5-2.5c0-0.2,0-0.4-0.1-0.5c-0.1-0.1-0.2-0.2-0.4-0.3c-0.1,0-0.3,0-0.4,0c-0.1,0-0.2,0.1-0.3,0.2
								c-0.1,0.1-0.1,0.2-0.2,0.4l-0.5,2.3L270.3,736.8z M278.3,738.5c-0.4-0.1-0.7-0.2-1-0.4c-0.2-0.2-0.4-0.5-0.5-0.8
								c-0.1-0.3-0.1-0.7,0-1.1c0.1-0.4,0.2-0.7,0.4-1c0.2-0.3,0.5-0.5,0.8-0.6c0.3-0.1,0.6-0.1,1-0.1c0.2,0,0.5,0.1,0.6,0.2
								c0.2,0.1,0.4,0.3,0.5,0.5c0.1,0.2,0.2,0.4,0.3,0.7c0,0.3,0,0.6,0,0.9l-0.1,0.3l-3.2-0.6l0.1-0.6l2.3,0.5c0-0.2,0-0.3,0-0.5
								c0-0.2-0.1-0.3-0.2-0.4c-0.1-0.1-0.3-0.2-0.4-0.2c-0.2,0-0.4,0-0.5,0c-0.2,0.1-0.3,0.2-0.4,0.3c-0.1,0.1-0.2,0.3-0.2,0.4
								l-0.1,0.5c0,0.2,0,0.4,0,0.6c0,0.2,0.1,0.3,0.3,0.4c0.1,0.1,0.3,0.2,0.5,0.2c0.1,0,0.3,0,0.4,0c0.1,0,0.2-0.1,0.3-0.1
								c0.1-0.1,0.2-0.1,0.2-0.2l0.8,0.3c-0.1,0.2-0.2,0.4-0.4,0.5c-0.2,0.1-0.4,0.2-0.6,0.3C278.9,738.6,278.6,738.6,278.3,738.5z
								 M282.2,736.8l-0.4,2.3l-0.9-0.2l0.8-3.8l0.9,0.2l-0.1,0.7l0,0c0.1-0.2,0.3-0.3,0.5-0.4c0.2-0.1,0.5-0.1,0.8,0
								c0.3,0.1,0.5,0.2,0.7,0.3c0.2,0.2,0.3,0.3,0.4,0.6c0.1,0.2,0.1,0.5,0,0.8l-0.5,2.4l-0.9-0.2l0.5-2.3c0.1-0.3,0-0.5-0.1-0.6
								c-0.1-0.2-0.3-0.3-0.5-0.3c-0.2,0-0.3,0-0.4,0c-0.1,0-0.3,0.1-0.3,0.2C282.3,736.5,282.2,736.7,282.2,736.8z M287.8,736.3
								l-0.1,0.7l-2.2-0.4l0.1-0.7L287.8,736.3z M286.3,735l0.9,0.2l-0.7,3.6c0,0.1,0,0.2,0,0.3c0,0.1,0.1,0.1,0.1,0.2
								c0.1,0,0.1,0.1,0.2,0.1c0.1,0,0.1,0,0.2,0c0,0,0.1,0,0.1,0l0,0.7c-0.1,0-0.1,0-0.2,0c-0.1,0-0.2,0-0.3,0
								c-0.2,0-0.4-0.1-0.6-0.2c-0.2-0.1-0.3-0.3-0.4-0.4c-0.1-0.2-0.1-0.4,0-0.6L286.3,735z"/>
						</g>
					</g>
				</g>
				<g>
					<defs>
						<path id="SVGID_00000017496901706355421360000015159806185459195057_" d="M288.2,429.1l197.5,39.2c11.7,2.3,19.3,13.7,17,25.4
							l-41.6,209.5c-2.3,11.7-13.7,19.3-25.4,17L238.2,681c-11.7-2.3-19.3-13.7-17-25.4l41.6-209.5
							C265.1,434.4,276.5,426.8,288.2,429.1z"/>
					</defs>
					<clipPath id="SVGID_00000178921272938622086030000018285454823306267570_">
						<use xlink:href="#SVGID_00000017496901706355421360000015159806185459195057_"  style="overflow:visible;"/>
					</clipPath>
					<g style="clip-path:url(#SVGID_00000178921272938622086030000018285454823306267570_);">
						<path class="st5" d="M288.2,429.1l197.5,39.2c11.7,2.3,19.3,13.7,17,25.4l-41.6,209.5c-2.3,11.7-13.7,19.3-25.4,17L238.2,681
							c-11.7-2.3-19.3-13.7-17-25.4l41.6-209.5C265.1,434.4,276.5,426.8,288.2,429.1z"/>
						<path class="st6" d="M288.2,429.1l197.5,39.2c11.7,2.3,19.3,13.7,17,25.4l-41.6,209.5c-2.3,11.7-13.7,19.3-25.4,17L238.2,681
							c-11.7-2.3-19.3-13.7-17-25.4l41.6-209.5C265.1,434.4,276.5,426.8,288.2,429.1z"/>
						
							<rect x="191.5" y="400.2" transform="matrix(0.1947 -0.9809 0.9809 0.1947 -234.7542 797.7629)" class="st6" width="353.8" height="283.3"/>
					</g>
				</g>
				<path class="st5" d="M547.1,480.5l197.5,39.2c11.7,2.3,19.3,13.7,17,25.4l-41.6,209.5c-2.3,11.7-13.7,19.3-25.4,17l-197.5-39.2
					c-11.7-2.3-19.3-13.7-17-25.4l41.6-209.5C524,485.8,535.4,478.2,547.1,480.5z"/>
				<path class="st6" d="M547.1,480.5l197.5,39.2c11.7,2.3,19.3,13.7,17,25.4l-41.6,209.5c-2.3,11.7-13.7,19.3-25.4,17l-197.5-39.2
					c-11.7-2.3-19.3-13.7-17-25.4l41.6-209.5C524,485.8,535.4,478.2,547.1,480.5z"/>
				<path class="st5" d="M139.7-156.1l197.5,39.2c11.7,2.3,19.3,13.7,17,25.4L312.6,118c-2.3,11.7-13.7,19.3-25.4,17L89.7,95.7
					c-11.7-2.3-19.3-13.7-17-25.4l41.6-209.5C116.6-150.8,128-158.4,139.7-156.1z"/>
				<path class="st6" d="M139.7-156.1l197.5,39.2c11.7,2.3,19.3,13.7,17,25.4L312.6,118c-2.3,11.7-13.7,19.3-25.4,17L89.7,95.7
					c-11.7-2.3-19.3-13.7-17-25.4l41.6-209.5C116.6-150.8,128-158.4,139.7-156.1z"/>
				<g>
					<defs>
						<path id="SVGID_00000103949367811190738160000003100081837922433963_" d="M-72.6,913.3l197.5,39.2c11.7,2.3,19.3,13.7,17,25.4
							l-41.6,209.5c-2.3,11.7-13.7,19.3-25.4,17l-197.5-39.2c-11.7-2.3-19.3-13.7-17-25.4l41.6-209.5
							C-95.6,918.5-84.3,911-72.6,913.3z"/>
					</defs>
					<clipPath id="SVGID_00000132772826333424071390000005328009552865958278_">
						<use xlink:href="#SVGID_00000103949367811190738160000003100081837922433963_"  style="overflow:visible;"/>
					</clipPath>
					<g style="clip-path:url(#SVGID_00000132772826333424071390000005328009552865958278_);">
						<path class="st5" d="M-72.6,913.3l197.5,39.2c11.7,2.3,19.3,13.7,17,25.4l-41.6,209.5c-2.3,11.7-13.7,19.3-25.4,17
							l-197.5-39.2c-11.7-2.3-19.3-13.7-17-25.4l41.6-209.5C-95.6,918.5-84.3,911-72.6,913.3z"/>
						<path class="st6" d="M-72.6,913.3l197.5,39.2c11.7,2.3,19.3,13.7,17,25.4l-41.6,209.5c-2.3,11.7-13.7,19.3-25.4,17
							l-197.5-39.2c-11.7-2.3-19.3-13.7-17-25.4l41.6-209.5C-95.6,918.5-84.3,911-72.6,913.3z"/>
						
							<rect x="-156.4" y="960.5" transform="matrix(0.1947 -0.9809 0.9809 0.1947 -1064.9303 868.4509)" class="st6" width="305.6" height="244.5"/>
						<g>
							<defs>
								
									<rect id="SVGID_00000039826784317713102900000000841719228046837178_" x="107" y="968.4" transform="matrix(0.1947 -0.9809 0.9809 0.1947 -865.196 900.2498)" width="17.3" height="17.3"/>
							</defs>
							<clipPath id="SVGID_00000042702121649629473840000002775274907683846033_">
								<use xlink:href="#SVGID_00000039826784317713102900000000841719228046837178_"  style="overflow:visible;"/>
							</clipPath>
							<g style="clip-path:url(#SVGID_00000042702121649629473840000002775274907683846033_);">
								<path class="st8" d="M119.1,979.8l1.3-6.6c0.2-1-0.4-2-1.5-2.2l-6.6-1.3c-1-0.2-2,0.4-2.2,1.5l-1.3,6.6
									c-0.2,1,0.4,2,1.5,2.2l6.6,1.3C117.9,981.4,118.9,980.8,119.1,979.8z M121.6,974.9l-1.1,5.7c-0.3,1.6-1.9,2.6-3.5,2.3
									l-5.7-1.1c-0.2,0-0.4,0.2-0.3,0.4c0.3,0.5,0.7,0.8,1.3,0.9l4.7,0.9c2,0.4,4-0.9,4.4-2.9l0.9-4.7c0.1-0.6,0-1.1-0.3-1.6
									C122,974.6,121.7,974.7,121.6,974.9z"/>
							</g>
						</g>
					</g>
				</g>
				<path class="st5" d="M86.9,109.8L284.4,149c11.7,2.3,19.3,13.7,17,25.4l-41.6,209.5c-2.3,11.7-13.7,19.3-25.4,17L36.9,361.7
					c-11.7-2.3-19.3-13.7-17-25.4l41.6-209.5C63.8,115.1,75.2,107.5,86.9,109.8z"/>
				<path class="st6" d="M86.9,109.8L284.4,149c11.7,2.3,19.3,13.7,17,25.4l-41.6,209.5c-2.3,11.7-13.7,19.3-25.4,17L36.9,361.7
					c-11.7-2.3-19.3-13.7-17-25.4l41.6-209.5C63.8,115.1,75.2,107.5,86.9,109.8z"/>
				<g>
					<defs>
						<path id="SVGID_00000121966088225997705130000010614148118554597784_" d="M396.4-105.1l197.5,39.2c11.7,2.3,19.3,13.7,17,25.4
							l-41.6,209.5c-2.3,11.7-13.7,19.3-25.4,17l-197.5-39.2c-11.7-2.3-19.3-13.7-17-25.4l41.6-209.5
							C373.4-99.8,384.7-107.4,396.4-105.1z"/>
					</defs>
					<clipPath id="SVGID_00000149346380893993458990000006967224139664761013_">
						<use xlink:href="#SVGID_00000121966088225997705130000010614148118554597784_"  style="overflow:visible;"/>
					</clipPath>
					<g style="clip-path:url(#SVGID_00000149346380893993458990000006967224139664761013_);">
						<path class="st5" d="M396.4-105.1l197.5,39.2c11.7,2.3,19.3,13.7,17,25.4l-41.6,209.5c-2.3,11.7-13.7,19.3-25.4,17
							l-197.5-39.2c-11.7-2.3-19.3-13.7-17-25.4l41.6-209.5C373.4-99.8,384.7-107.4,396.4-105.1z"/>
						
							<rect x="307.2" y="-55.6" transform="matrix(0.1947 -0.9809 0.9809 0.1947 305.0363 519.1629)" class="st6" width="322.9" height="258.9"/>
					</g>
				</g>
				<path class="st5" d="M184.2,964.2l454.3,90.2c11.7,2.3,19.3,13.7,17,25.4L560.5,1558c-2.3,11.7-13.7,19.3-25.4,17l-454.3-90.2
					c-11.7-2.3-19.3-13.7-17-25.4l94.9-478.2C161.1,969.5,172.5,961.9,184.2,964.2z"/>
				<path class="st6" d="M184.2,964.2l454.3,90.2c11.7,2.3,19.3,13.7,17,25.4L560.5,1558c-2.3,11.7-13.7,19.3-25.4,17l-454.3-90.2
					c-11.7-2.3-19.3-13.7-17-25.4l94.9-478.2C161.1,969.5,172.5,961.9,184.2,964.2z"/>
				<g>
					<defs>
						<path id="SVGID_00000062884741528654813900000007292734443197155716_" d="M343.6,160.8L541.2,200c11.7,2.3,19.3,13.7,17,25.4
							l-41.6,209.5c-2.3,11.7-13.7,19.3-25.4,17l-197.5-39.2c-11.7-2.3-19.3-13.7-17-25.4l41.6-209.5
							C320.6,166.1,332,158.5,343.6,160.8z"/>
					</defs>
					<clipPath id="SVGID_00000010998706990779445900000002815289390435819401_">
						<use xlink:href="#SVGID_00000062884741528654813900000007292734443197155716_"  style="overflow:visible;"/>
					</clipPath>
					<g style="clip-path:url(#SVGID_00000010998706990779445900000002815289390435819401_);">
						<path class="st5" d="M343.6,160.8L541.2,200c11.7,2.3,19.3,13.7,17,25.4l-41.6,209.5c-2.3,11.7-13.7,19.3-25.4,17l-197.5-39.2
							c-11.7-2.3-19.3-13.7-17-25.4l41.6-209.5C320.6,166.1,332,158.5,343.6,160.8z"/>
						<path class="st6" d="M343.6,160.8L541.2,200c11.7,2.3,19.3,13.7,17,25.4l-41.6,209.5c-2.3,11.7-13.7,19.3-25.4,17l-197.5-39.2
							c-11.7-2.3-19.3-13.7-17-25.4l41.6-209.5C320.6,166.1,332,158.5,343.6,160.8z"/>
						
							<linearGradient id="SVGID_00000065784553235925741050000001245625875817553794_" gradientUnits="userSpaceOnUse" x1="401.9267" y1="874.257" x2="401.9267" y2="617.524" gradientTransform="matrix(0.9809 0.1947 0.1947 -0.9809 -122.0446 959.6844)">
							<stop  offset="0" style="stop-color:#000000;stop-opacity:0"/>
							<stop  offset="1" style="stop-color:#000000"/>
						</linearGradient>
						<polygon style="fill:url(#SVGID_00000065784553235925741050000001245625875817553794_);fill-opacity:0.7;" points="
							322.5,156.6 562.3,204.2 512.3,456 272.5,408.4 						"/>
						<g>
							<defs>
								
									<rect id="SVGID_00000168105505299088792110000017855237181954059668_" x="462.4" y="341.7" transform="matrix(0.1947 -0.9809 0.9809 0.1947 35.6882 744.0913)" width="17.3" height="17.3"/>
							</defs>
							<clipPath id="SVGID_00000045620191897441087460000008189292741345725827_">
								<use xlink:href="#SVGID_00000168105505299088792110000017855237181954059668_"  style="overflow:visible;"/>
							</clipPath>
							<g style="clip-path:url(#SVGID_00000045620191897441087460000008189292741345725827_);">
								<path class="st17" d="M470.1,343.9l0.2-1.1 M467.1,344.4l-0.6-0.9 M466,350l-0.9,0.6 M472.7,345.6l0.9-0.6 M465.4,347
									l-1.1-0.2 M473.1,353.8l-2.4,2.9c-0.3,0.3-0.4,0.5-0.5,0.5c-0.1,0-0.2,0-0.3-0.1c-0.1-0.1-0.1-0.3-0.2-0.7l-0.9-8.4
									c0-0.4-0.1-0.5,0-0.6c0.1-0.1,0.1-0.2,0.3-0.2c0.1,0,0.3,0.1,0.6,0.2l7.4,4c0.4,0.2,0.6,0.3,0.6,0.4c0,0.1,0,0.2,0,0.3
									c-0.1,0.1-0.3,0.2-0.7,0.3l-3.6,1.1c-0.1,0-0.1,0-0.1,0C473.3,353.7,473.2,353.7,473.1,353.8
									C473.2,353.7,473.2,353.8,473.1,353.8z"/>
							</g>
						</g>
						<g>
							<defs>
								<path id="SVGID_00000152241102744162516280000010810813852706391475_" d="M308.4,375.2L308.4,375.2
									c5.8,1.2,9.6,6.8,8.5,12.7v0c-1.2,5.8-6.8,9.6-12.7,8.5h0c-5.8-1.2-9.6-6.8-8.5-12.7v0C296.9,377.9,302.6,374.1,308.4,375.2
									z"/>
							</defs>
							<clipPath id="SVGID_00000115493881500418579390000000946185328531442343_">
								<use xlink:href="#SVGID_00000152241102744162516280000010810813852706391475_"  style="overflow:visible;"/>
							</clipPath>
							<g style="clip-path:url(#SVGID_00000115493881500418579390000000946185328531442343_);">
								<path class="st19" d="M308.4,375.2L308.4,375.2c5.8,1.2,9.6,6.8,8.5,12.7l0,0c-1.2,5.8-6.8,9.6-12.7,8.5h0
									c-5.8-1.2-9.6-6.8-8.5-12.7v0C296.9,377.9,302.6,374.1,308.4,375.2z"/>
								
									<rect x="295.5" y="375" transform="matrix(0.1947 -0.9809 0.9809 0.1947 -131.748 611.1534)" class="st6" width="21.6" height="21.6"/>
								<path class="st6" d="M308.4,375.2L308.4,375.2c5.8,1.2,9.6,6.8,8.5,12.7l0,0c-1.2,5.8-6.8,9.6-12.7,8.5h0
									c-5.8-1.2-9.6-6.8-8.5-12.7v0C296.9,377.9,302.6,374.1,308.4,375.2z"/>
								<path class="st20" d="M308.3,375.6L308.3,375.6c5.6,1.1,9.3,6.6,8.2,12.3l0,0c-1.1,5.6-6.6,9.3-12.3,8.2l0,0
									c-5.6-1.1-9.3-6.6-8.2-12.3l0,0C297.2,378.1,302.7,374.5,308.3,375.6z"/>
							</g>
						</g>
						<path class="st8" d="M319.7,391.5l1.2-6.2l1.1,0.2l-1,5.2l2.7,0.5l-0.2,0.9L319.7,391.5z M325.1,392.7
							c-0.3-0.1-0.5-0.2-0.8-0.3c-0.2-0.2-0.4-0.3-0.5-0.6c-0.1-0.2-0.1-0.5,0-0.8c0.1-0.3,0.1-0.5,0.3-0.6s0.3-0.3,0.5-0.3
							c0.2-0.1,0.4-0.1,0.6-0.1c0.2,0,0.4,0,0.7,0c0.3,0,0.5,0,0.7,0.1c0.2,0,0.3,0,0.4,0c0.1,0,0.1-0.1,0.2-0.2l0,0
							c0-0.2,0-0.4-0.1-0.6c-0.1-0.2-0.3-0.3-0.5-0.3c-0.3-0.1-0.5,0-0.7,0c-0.2,0.1-0.3,0.2-0.4,0.3l-1-0.3
							c0.1-0.3,0.3-0.5,0.5-0.6c0.2-0.2,0.5-0.3,0.8-0.3c0.3,0,0.6,0,0.9,0c0.2,0,0.4,0.1,0.6,0.2c0.2,0.1,0.4,0.2,0.6,0.4
							c0.2,0.2,0.3,0.3,0.3,0.6c0.1,0.2,0.1,0.5,0,0.8l-0.6,3.1l-1-0.2l0.1-0.6l0,0c-0.1,0.1-0.2,0.2-0.4,0.3
							c-0.1,0.1-0.3,0.1-0.5,0.2C325.5,392.7,325.3,392.7,325.1,392.7z M325.5,392c0.2,0,0.4,0,0.6,0c0.2-0.1,0.3-0.1,0.4-0.3
							c0.1-0.1,0.2-0.3,0.2-0.4l0.1-0.5c0,0-0.1,0-0.2,0c-0.1,0-0.2,0-0.3,0c-0.1,0-0.2,0-0.3,0c-0.1,0-0.2,0-0.3,0
							c-0.2,0-0.3,0-0.5,0c-0.1,0-0.3,0.1-0.3,0.1c-0.1,0.1-0.2,0.2-0.2,0.3c0,0.2,0,0.4,0.1,0.5C325.1,391.8,325.3,391.9,325.5,392
							z M331.3,391.8l0.5-2.7l1.1,0.2L332,394l-1.1-0.2l0.2-0.8l0,0c-0.2,0.2-0.4,0.4-0.6,0.5c-0.3,0.1-0.6,0.1-0.9,0.1
							c-0.3-0.1-0.6-0.2-0.8-0.4c-0.2-0.2-0.3-0.4-0.4-0.7c-0.1-0.3-0.1-0.6,0-1l0.6-2.9l1.1,0.2l-0.5,2.8c-0.1,0.3,0,0.5,0.1,0.7
							c0.1,0.2,0.3,0.3,0.6,0.4c0.2,0,0.3,0,0.5,0c0.2,0,0.3-0.1,0.4-0.3C331.1,392.2,331.2,392,331.3,391.8z M332.4,394l0.9-4.6
							l1.1,0.2l-0.2,0.8l0,0c0.1-0.2,0.3-0.4,0.6-0.5c0.2-0.1,0.5-0.1,0.8-0.1c0.1,0,0.1,0,0.2,0c0.1,0,0.1,0,0.2,0.1l-0.2,1
							c0,0-0.1-0.1-0.2-0.1c-0.1,0-0.2-0.1-0.3-0.1c-0.2,0-0.4,0-0.6,0c-0.2,0.1-0.3,0.1-0.4,0.3c-0.1,0.1-0.2,0.3-0.2,0.5l-0.5,2.7
							L332.4,394z M336.3,394.9c-0.3-0.1-0.5-0.2-0.8-0.3c-0.2-0.2-0.4-0.3-0.5-0.6c-0.1-0.2-0.1-0.5,0-0.8c0.1-0.3,0.1-0.5,0.3-0.6
							c0.1-0.2,0.3-0.3,0.5-0.3c0.2-0.1,0.4-0.1,0.6-0.1c0.2,0,0.4,0,0.7,0c0.3,0,0.5,0,0.7,0.1c0.2,0,0.3,0,0.4,0
							c0.1,0,0.1-0.1,0.2-0.2l0,0c0-0.2,0-0.4-0.1-0.6c-0.1-0.2-0.3-0.3-0.5-0.3c-0.3-0.1-0.5,0-0.7,0c-0.2,0.1-0.3,0.2-0.4,0.4
							l-1-0.3c0.1-0.3,0.3-0.5,0.5-0.6c0.2-0.2,0.5-0.3,0.8-0.3c0.3,0,0.6,0,0.9,0c0.2,0,0.4,0.1,0.6,0.2s0.4,0.2,0.6,0.4
							c0.2,0.2,0.3,0.3,0.3,0.6c0.1,0.2,0.1,0.5,0,0.8l-0.6,3.1l-1-0.2l0.1-0.6l0,0c-0.1,0.1-0.2,0.2-0.4,0.3
							c-0.1,0.1-0.3,0.1-0.5,0.2C336.7,395,336.5,395,336.3,394.9z M336.7,394.2c0.2,0,0.4,0,0.6,0c0.2-0.1,0.3-0.1,0.4-0.3
							c0.1-0.1,0.2-0.3,0.2-0.4l0.1-0.5c0,0-0.1,0-0.2,0c-0.1,0-0.2,0-0.3,0c-0.1,0-0.2,0-0.3,0c-0.1,0-0.2,0-0.3,0
							c-0.2,0-0.3,0-0.5,0c-0.1,0-0.3,0.1-0.3,0.2c-0.1,0.1-0.2,0.2-0.2,0.3c0,0.2,0,0.4,0.1,0.5C336.3,394,336.5,394.1,336.7,394.2
							z M339.1,395.4l0.9-4.6l1,0.2l-0.2,0.8l0.1,0c0.1-0.2,0.3-0.4,0.6-0.5c0.3-0.1,0.5-0.1,0.8-0.1c0.3,0.1,0.6,0.2,0.7,0.4
							c0.2,0.2,0.3,0.4,0.3,0.7l0,0c0.2-0.2,0.4-0.4,0.6-0.5c0.3-0.1,0.6-0.1,0.9-0.1c0.4,0.1,0.7,0.3,1,0.6
							c0.2,0.3,0.3,0.7,0.2,1.3l-0.6,3.1l-1.1-0.2l0.6-2.9c0.1-0.3,0-0.5-0.1-0.7c-0.1-0.2-0.3-0.3-0.5-0.3c-0.3-0.1-0.5,0-0.7,0.1
							c-0.2,0.1-0.3,0.3-0.3,0.6l-0.6,2.9l-1.1-0.2l0.6-3c0-0.2,0-0.4-0.1-0.6c-0.1-0.2-0.3-0.3-0.5-0.3c-0.2,0-0.3,0-0.4,0
							c-0.1,0.1-0.3,0.1-0.4,0.3c-0.1,0.1-0.2,0.3-0.2,0.5l-0.6,2.8L339.1,395.4z M347.3,397.1c-0.3-0.1-0.5-0.2-0.8-0.3
							c-0.2-0.2-0.4-0.3-0.5-0.6c-0.1-0.2-0.1-0.5-0.1-0.8c0.1-0.3,0.1-0.5,0.3-0.6c0.1-0.2,0.3-0.3,0.5-0.3
							c0.2-0.1,0.4-0.1,0.6-0.1c0.2,0,0.4,0,0.7,0c0.3,0,0.5,0,0.7,0.1c0.2,0,0.3,0,0.4,0c0.1,0,0.1-0.1,0.2-0.2l0,0
							c0-0.2,0-0.4-0.1-0.6c-0.1-0.2-0.3-0.3-0.5-0.3c-0.3-0.1-0.5,0-0.7,0c-0.2,0.1-0.3,0.2-0.4,0.4l-1-0.3
							c0.1-0.3,0.3-0.5,0.5-0.6c0.2-0.2,0.5-0.3,0.8-0.3c0.3,0,0.6,0,0.9,0c0.2,0,0.4,0.1,0.6,0.2c0.2,0.1,0.4,0.2,0.6,0.4
							c0.2,0.2,0.3,0.3,0.3,0.6c0.1,0.2,0.1,0.5,0,0.8l-0.6,3.1l-1-0.2l0.1-0.6l0,0c-0.1,0.1-0.2,0.2-0.4,0.3
							c-0.1,0.1-0.3,0.1-0.5,0.2C347.8,397.2,347.5,397.1,347.3,397.1z M347.7,396.4c0.2,0,0.4,0,0.6,0c0.2-0.1,0.3-0.1,0.4-0.3
							c0.1-0.1,0.2-0.3,0.2-0.4l0.1-0.5c0,0-0.1,0-0.2,0c-0.1,0-0.2,0-0.3,0c-0.1,0-0.2,0-0.3,0c-0.1,0-0.2,0-0.3,0
							c-0.2,0-0.3,0-0.5,0c-0.1,0-0.3,0.1-0.3,0.2c-0.1,0.1-0.2,0.2-0.2,0.3c0,0.2,0,0.4,0.1,0.5
							C347.3,396.2,347.5,396.3,347.7,396.4z M353.4,393.4l-0.2,0.8l-2.7-0.5l0.2-0.8L353.4,393.4z M351.6,391.9l1.1,0.2l-0.9,4.3
							c0,0.1,0,0.3,0,0.4c0,0.1,0.1,0.1,0.1,0.2c0.1,0,0.1,0.1,0.2,0.1c0.1,0,0.1,0,0.2,0c0.1,0,0.1,0,0.1,0l0,0.9
							c-0.1,0-0.1,0-0.3,0c-0.1,0-0.2,0-0.4,0c-0.3,0-0.5-0.1-0.7-0.3c-0.2-0.1-0.3-0.3-0.4-0.5c-0.1-0.2-0.1-0.5,0-0.8L351.6,391.9
							z M355.9,393.9l-0.2,0.8l-2.7-0.5l0.2-0.8L355.9,393.9z M354.1,392.4l1.1,0.2l-0.9,4.3c0,0.1,0,0.3,0,0.3
							c0,0.1,0.1,0.1,0.1,0.2c0.1,0,0.1,0.1,0.2,0.1c0.1,0,0.1,0,0.2,0c0.1,0,0.1,0,0.1,0l0,0.9c-0.1,0-0.1,0-0.3,0
							c-0.1,0-0.2,0-0.4,0c-0.3,0-0.5-0.1-0.7-0.3c-0.2-0.1-0.3-0.3-0.4-0.5c-0.1-0.2-0.1-0.5,0-0.8L354.1,392.4z M356.9,396.1
							l-0.5,2.7l-1.1-0.2l1.2-6.2l1.1,0.2l-0.5,2.3l0.1,0c0.2-0.2,0.4-0.4,0.6-0.5c0.3-0.1,0.6-0.1,0.9-0.1c0.3,0.1,0.6,0.2,0.8,0.4
							c0.2,0.2,0.4,0.4,0.4,0.7c0.1,0.3,0.1,0.6,0,1l-0.6,2.9l-1.1-0.2l0.5-2.8c0.1-0.3,0-0.6-0.1-0.8c-0.1-0.2-0.3-0.3-0.6-0.4
							c-0.2,0-0.4,0-0.5,0c-0.2,0.1-0.3,0.1-0.4,0.3C357,395.7,356.9,395.9,356.9,396.1z M361.8,400c-0.5-0.1-0.8-0.3-1.1-0.5
							c-0.3-0.3-0.5-0.6-0.6-1c-0.1-0.4-0.1-0.8,0-1.3c0.1-0.5,0.3-0.9,0.5-1.2c0.3-0.3,0.6-0.6,0.9-0.7c0.4-0.1,0.8-0.2,1.2-0.1
							c0.3,0.1,0.5,0.2,0.8,0.3c0.2,0.1,0.4,0.3,0.6,0.6c0.2,0.2,0.3,0.5,0.3,0.8c0.1,0.3,0,0.7,0,1.1l-0.1,0.3l-3.8-0.8l0.1-0.7
							l2.7,0.5c0-0.2,0-0.4,0-0.6c-0.1-0.2-0.2-0.3-0.3-0.5c-0.1-0.1-0.3-0.2-0.5-0.2c-0.2,0-0.4,0-0.6,0c-0.2,0.1-0.3,0.2-0.5,0.3
							c-0.1,0.2-0.2,0.3-0.3,0.5l-0.1,0.6c-0.1,0.3,0,0.5,0,0.7c0.1,0.2,0.2,0.4,0.3,0.5c0.2,0.1,0.4,0.2,0.6,0.3c0.2,0,0.3,0,0.4,0
							c0.1,0,0.3-0.1,0.4-0.1c0.1-0.1,0.2-0.2,0.3-0.3l1,0.3c-0.1,0.3-0.3,0.5-0.5,0.6c-0.2,0.2-0.5,0.3-0.8,0.3
							C362.5,400.1,362.1,400,361.8,400z M365,400.5l-0.4-4.9l1.1,0.2l0.2,3.4l0,0l1.5-3.1l1.1,0.2l0.2,3.4l0,0l1.4-3.1l1.1,0.2
							l-2.2,4.4l-1.1-0.2l-0.2-3.3l-0.1,0l-1.5,2.9L365,400.5z M374.7,398.9l-1-0.1c0-0.1,0-0.2-0.1-0.3c-0.1-0.1-0.1-0.2-0.2-0.3
							c-0.1-0.1-0.2-0.1-0.4-0.2c-0.2,0-0.4,0-0.6,0c-0.2,0.1-0.3,0.2-0.3,0.3c0,0.1,0,0.3,0.1,0.4c0.1,0.1,0.2,0.2,0.5,0.3l0.8,0.3
							c0.4,0.2,0.7,0.4,0.9,0.6c0.2,0.2,0.2,0.5,0.2,0.9c-0.1,0.3-0.2,0.5-0.4,0.7c-0.2,0.2-0.5,0.3-0.8,0.4c-0.3,0.1-0.7,0.1-1.1,0
							c-0.6-0.1-1-0.3-1.3-0.6c-0.3-0.3-0.4-0.7-0.4-1.1l1.1,0.1c0,0.2,0.1,0.4,0.2,0.5s0.3,0.2,0.6,0.3c0.3,0.1,0.5,0,0.7,0
							c0.2-0.1,0.3-0.2,0.3-0.3c0-0.1,0-0.3-0.1-0.4c-0.1-0.1-0.2-0.2-0.4-0.3l-0.8-0.3c-0.4-0.2-0.7-0.4-0.9-0.7
							c-0.2-0.3-0.2-0.6-0.2-0.9c0.1-0.3,0.2-0.5,0.4-0.7c0.2-0.2,0.5-0.3,0.8-0.4c0.3-0.1,0.6-0.1,1,0c0.5,0.1,0.9,0.3,1.2,0.6
							C374.6,398.2,374.8,398.5,374.7,398.9z"/>
						<g>
							<defs>
								<path id="SVGID_00000060737926669275724930000016009672209128763544_" d="M438,405.3l5.6,1.1c1.9,0.4,3.2,2.3,2.8,4.2
									l-1.1,5.6c-0.4,1.9-2.3,3.2-4.2,2.8l-5.6-1.1c-1.9-0.4-3.2-2.3-2.8-4.2l1.1-5.6C434.1,406.2,436,405,438,405.3z"/>
							</defs>
							<clipPath id="SVGID_00000042006737820240973820000016144569369795966395_">
								<use xlink:href="#SVGID_00000060737926669275724930000016009672209128763544_"  style="overflow:visible;"/>
							</clipPath>
							<g style="clip-path:url(#SVGID_00000042006737820240973820000016144569369795966395_);">
								<path class="st22" d="M436.6,407c-1.1,0.3-2,1.2-2.2,2.4c-0.3,1.3,0.1,2.4,0.7,3.4c0.5,0.8,1.1,1.6,1.8,2.3
									c0.1,0.2,0.3,0.3,0.4,0.5c0.3,0.3,0.5,0.6,0.7,0.8c0.2,0.2,0.4,0.3,0.6,0.4c0.2,0,0.4,0,0.7-0.1c0.3-0.1,0.6-0.3,1-0.4
									c0.2-0.1,0.4-0.2,0.6-0.3c0.9-0.4,1.7-0.9,2.5-1.4c0.9-0.7,1.7-1.6,1.9-2.9c0.3-1.3-0.3-2.5-1.1-3.1
									c-0.9-0.6-2.2-0.8-3.6,0.3c-0.1,0.1-0.2,0.1-0.3,0.1c-0.1,0-0.2-0.1-0.3-0.2C438.9,407.1,437.7,406.7,436.6,407z
									 M440.4,407.7c-1.1-1.5-2.6-2-4-1.6c-1.4,0.3-2.6,1.5-2.9,3.1c-0.3,1.6,0.1,2.9,0.8,4c0.5,0.9,1.2,1.7,1.9,2.4
									c0.1,0.2,0.3,0.3,0.4,0.5c0.3,0.3,0.5,0.6,0.8,0.9c0.3,0.3,0.6,0.5,1,0.6c0.4,0.1,0.8,0,1.2-0.1c0.4-0.1,0.7-0.3,1.1-0.5
									c0.2-0.1,0.4-0.2,0.6-0.3c0.9-0.4,1.8-0.9,2.7-1.5c1-0.8,1.9-1.9,2.2-3.4c0.3-1.6-0.3-3.2-1.5-4
									C443.5,406.9,442,406.8,440.4,407.7z"/>
							</g>
						</g>
						<path class="st23" d="M452.3,411.4l-1.2,6.2l-0.9-0.2l1-5.2l0,0l-1.7,0.7l0.2-0.9l1.7-0.7L452.3,411.4z M452.7,417.9l0.1-0.7
							l2.5-1.7c0.3-0.2,0.5-0.4,0.7-0.5c0.2-0.1,0.3-0.3,0.4-0.4s0.2-0.3,0.2-0.5c0-0.2,0-0.4,0-0.6c-0.1-0.2-0.2-0.3-0.3-0.4
							c-0.1-0.1-0.3-0.2-0.5-0.2c-0.2,0-0.4,0-0.6,0c-0.2,0.1-0.3,0.2-0.5,0.3c-0.1,0.1-0.2,0.3-0.2,0.6l-0.9-0.2
							c0.1-0.4,0.2-0.7,0.5-0.9s0.5-0.4,0.8-0.5c0.3-0.1,0.7-0.1,1.1,0c0.4,0.1,0.7,0.2,1,0.4c0.3,0.2,0.5,0.5,0.6,0.8
							c0.1,0.3,0.1,0.6,0.1,0.9c0,0.2-0.1,0.4-0.3,0.6c-0.1,0.2-0.3,0.4-0.6,0.6c-0.3,0.2-0.6,0.5-1.1,0.8l-1.5,1l0,0l2.8,0.6
							l-0.2,0.8L452.7,417.9z M460,419.5c-0.5-0.1-0.9-0.3-1.1-0.6c-0.3-0.3-0.5-0.7-0.6-1.2c-0.1-0.5-0.1-1.1,0.1-1.8
							c0.1-0.7,0.3-1.2,0.6-1.7c0.3-0.4,0.6-0.7,1-0.9c0.4-0.2,0.8-0.2,1.3-0.1c0.5,0.1,0.9,0.3,1.1,0.6c0.3,0.3,0.5,0.7,0.6,1.2
							c0.1,0.5,0.1,1.1-0.1,1.8c-0.1,0.7-0.3,1.2-0.6,1.7c-0.3,0.4-0.6,0.7-1,0.9C460.9,419.5,460.5,419.6,460,419.5z M460.2,418.7
							c0.4,0.1,0.8-0.1,1.1-0.4c0.3-0.4,0.6-0.9,0.7-1.7c0.1-0.5,0.1-1,0.1-1.3c0-0.4-0.1-0.7-0.3-0.9c-0.2-0.2-0.4-0.4-0.7-0.4
							c-0.4-0.1-0.8,0.1-1.1,0.4c-0.3,0.4-0.6,0.9-0.7,1.7c-0.1,0.5-0.1,1-0.1,1.3c0,0.4,0.1,0.7,0.3,0.9
							C459.7,418.5,459.9,418.6,460.2,418.7z"/>
						<g>
							<defs>
								
									<rect id="SVGID_00000029768554628541266960000009695007802851527336_" x="473.9" y="413.9" transform="matrix(0.1947 -0.9809 0.9809 0.1947 -25.4876 809.6593)" width="12.9" height="12.9"/>
							</defs>
							<clipPath id="SVGID_00000005984413158010296060000008934321015875500193_">
								<use xlink:href="#SVGID_00000029768554628541266960000009695007802851527336_"  style="overflow:visible;"/>
							</clipPath>
							<g style="clip-path:url(#SVGID_00000005984413158010296060000008934321015875500193_);">
								<path class="st25" d="M478.5,420c-0.1,0.3-0.4,0.5-0.7,0.5c-0.3-0.1-0.5-0.4-0.5-0.7c0.1-0.3,0.4-0.5,0.7-0.5
									C478.4,419.3,478.6,419.6,478.5,420z"/>
								<path class="st25" d="M480.9,420.4c-0.1,0.3-0.4,0.5-0.7,0.5c-0.3-0.1-0.5-0.4-0.5-0.7c0.1-0.3,0.4-0.5,0.7-0.5
									C480.8,419.8,481,420.1,480.9,420.4z"/>
								<path class="st25" d="M483.3,420.9c-0.1,0.3-0.4,0.5-0.7,0.5c-0.3-0.1-0.5-0.4-0.5-0.7c0.1-0.3,0.4-0.5,0.7-0.5
									C483.1,420.3,483.3,420.6,483.3,420.9z"/>
								<path class="st22" d="M486.6,421.6c0.7-3.5-1.6-6.9-5.1-7.6c-3.5-0.7-6.9,1.6-7.6,5.1c-0.2,1-0.2,2,0.1,2.9
									c0,0.1,0,0.3,0,0.4l-0.6,1.2c-0.4,0.8,0.2,1.8,1.2,1.8l1.4-0.1c0.1,0,0.2,0,0.4,0.1c0.8,0.6,1.7,1,2.7,1.2
									C482.5,427.3,485.9,425.1,486.6,421.6z M481.4,414.9c3,0.6,5,3.5,4.4,6.5c-0.6,3-3.5,5-6.5,4.4c-0.9-0.2-1.7-0.5-2.3-1
									c-0.3-0.2-0.6-0.3-1-0.3l-1.4,0.1c-0.3,0-0.4-0.2-0.3-0.5l0.6-1.2c0.2-0.3,0.2-0.7,0.1-1c-0.2-0.8-0.3-1.7-0.1-2.5
									C475.5,416.2,478.4,414.3,481.4,414.9z"/>
							</g>
						</g>
						<path class="st23" d="M491.6,425.7c-0.3-0.1-0.5-0.2-0.8-0.3c-0.2-0.1-0.5-0.4-0.6-0.6c-0.2-0.3-0.3-0.6-0.3-1
							c-0.1-0.4,0-0.9,0.1-1.5c0.1-0.5,0.3-1,0.4-1.4c0.2-0.4,0.4-0.7,0.7-1c0.3-0.2,0.5-0.4,0.9-0.5c0.3-0.1,0.7-0.1,1,0
							c0.4,0.1,0.7,0.2,0.9,0.4c0.3,0.2,0.4,0.4,0.6,0.7c0.1,0.3,0.2,0.6,0.2,0.9l-0.9-0.2c0-0.3-0.1-0.5-0.2-0.7
							c-0.2-0.2-0.4-0.3-0.7-0.4c-0.5-0.1-0.8,0-1.2,0.4c-0.3,0.3-0.6,0.9-0.7,1.6l0,0c0.1-0.2,0.3-0.3,0.5-0.4
							c0.2-0.1,0.4-0.2,0.6-0.2c0.2,0,0.4,0,0.6,0c0.4,0.1,0.7,0.2,0.9,0.5c0.3,0.2,0.4,0.5,0.6,0.9s0.1,0.7,0.1,1.1
							c-0.1,0.4-0.2,0.7-0.5,1c-0.2,0.3-0.5,0.5-0.9,0.6C492.5,425.8,492.1,425.8,491.6,425.7z M491.8,425c0.2,0,0.5,0,0.7,0
							c0.2-0.1,0.4-0.2,0.5-0.4c0.1-0.2,0.2-0.4,0.3-0.6c0-0.2,0-0.5,0-0.7c-0.1-0.2-0.2-0.4-0.3-0.5c-0.2-0.2-0.4-0.2-0.6-0.3
							c-0.2,0-0.4,0-0.5,0c-0.2,0-0.3,0.1-0.5,0.2c-0.1,0.1-0.3,0.2-0.4,0.4c-0.1,0.1-0.2,0.3-0.2,0.5c0,0.2,0,0.5,0,0.7
							c0.1,0.2,0.2,0.4,0.3,0.6C491.4,424.8,491.6,424.9,491.8,425z M497,426.8c-0.4-0.1-0.8-0.2-1.1-0.4c-0.3-0.2-0.5-0.5-0.7-0.8
							c-0.1-0.3-0.2-0.6-0.1-0.9c0.1-0.3,0.2-0.5,0.3-0.7c0.2-0.2,0.3-0.4,0.6-0.5c0.2-0.1,0.4-0.2,0.7-0.2l0,0
							c-0.3-0.1-0.5-0.3-0.6-0.6c-0.1-0.3-0.2-0.6-0.1-0.9c0.1-0.3,0.2-0.6,0.4-0.8c0.2-0.2,0.5-0.4,0.8-0.4c0.3-0.1,0.7-0.1,1.1,0
							c0.4,0.1,0.7,0.2,1,0.4c0.3,0.2,0.5,0.4,0.6,0.7c0.1,0.3,0.2,0.6,0.1,0.9c-0.1,0.3-0.2,0.6-0.5,0.8c-0.2,0.2-0.5,0.3-0.8,0.3
							l0,0c0.2,0.1,0.4,0.2,0.6,0.4c0.2,0.2,0.3,0.4,0.3,0.6c0.1,0.2,0.1,0.5,0,0.8c-0.1,0.3-0.2,0.6-0.5,0.8
							c-0.2,0.2-0.5,0.4-0.9,0.5C497.8,426.9,497.4,426.9,497,426.8z M497.1,426c0.3,0.1,0.5,0.1,0.7,0c0.2,0,0.4-0.1,0.5-0.3
							c0.1-0.1,0.2-0.3,0.3-0.5c0-0.2,0-0.4-0.1-0.6c-0.1-0.2-0.2-0.3-0.4-0.5c-0.2-0.1-0.4-0.2-0.6-0.3c-0.2,0-0.5,0-0.7,0
							s-0.4,0.2-0.5,0.3c-0.1,0.1-0.2,0.3-0.3,0.5c0,0.2,0,0.4,0,0.6c0.1,0.2,0.2,0.3,0.4,0.4C496.6,425.9,496.9,426,497.1,426z
							 M497.7,423.2c0.2,0,0.4,0,0.6,0c0.2-0.1,0.3-0.1,0.4-0.3c0.1-0.1,0.2-0.3,0.2-0.5c0-0.2,0-0.4,0-0.5
							c-0.1-0.2-0.2-0.3-0.3-0.4c-0.1-0.1-0.3-0.2-0.5-0.2c-0.2,0-0.4,0-0.6,0c-0.2,0-0.3,0.1-0.4,0.3c-0.1,0.1-0.2,0.3-0.2,0.5
							c0,0.2,0,0.4,0,0.5s0.2,0.3,0.3,0.4C497.3,423.1,497.5,423.1,497.7,423.2z"/>
					</g>
				</g>
				<path class="st5" d="M653.2-54.2L850.7-15c11.7,2.3,19.3,13.7,17,25.4l-94.4,475.4c-2.3,11.7-13.7,19.3-25.4,17l-197.5-39.2
					c-11.7-2.3-19.3-13.7-17-25.4l94.4-475.4C630.1-48.9,641.5-56.5,653.2-54.2z"/>
				<path class="st6" d="M653.2-54.2L850.7-15c11.7,2.3,19.3,13.7,17,25.4l-94.4,475.4c-2.3,11.7-13.7,19.3-25.4,17l-197.5-39.2
					c-11.7-2.3-19.3-13.7-17-25.4l94.4-475.4C630.1-48.9,641.5-56.5,653.2-54.2z"/>
				<path class="st5" d="M31.4,378.2l197.5,39.2c11.7,2.3,19.3,13.7,17,25.4l-94.4,475.4c-2.3,11.7-13.7,19.3-25.4,17l-197.5-39.2
					c-11.7-2.3-19.3-13.7-17-25.4L6.1,395.1C8.4,383.4,19.7,375.9,31.4,378.2z"/>
				<path class="st6" d="M31.4,378.2l197.5,39.2c11.7,2.3,19.3,13.7,17,25.4l-94.4,475.4c-2.3,11.7-13.7,19.3-25.4,17l-197.5-39.2
					c-11.7-2.3-19.3-13.7-17-25.4L6.1,395.1C8.4,383.4,19.7,375.9,31.4,378.2z"/>
				<g>
					<defs>
						
							<rect id="SVGID_00000011754326133581263920000003667258053304397222_" x="211" y="433.3" transform="matrix(0.1947 -0.9809 0.9809 0.1947 -256.5755 571.348)" width="17.3" height="17.3"/>
					</defs>
					<clipPath id="SVGID_00000084520886240115164420000014839059057744876682_">
						<use xlink:href="#SVGID_00000011754326133581263920000003667258053304397222_"  style="overflow:visible;"/>
					</clipPath>
					<g style="clip-path:url(#SVGID_00000084520886240115164420000014839059057744876682_);">
						<path class="st27" d="M221.1,434.3L221.1,434.3c1.7,0.3,3,0.6,4,0.9c1,0.3,1.7,0.8,2.2,1.5c0.5,0.8,0.6,1.6,0.6,2.7
							c-0.1,1-0.3,2.3-0.6,3.9l0,0.1c-0.3,1.6-0.6,2.9-0.9,3.9c-0.3,1-0.8,1.7-1.5,2.2c-0.8,0.5-1.6,0.6-2.7,0.6
							c-1-0.1-2.3-0.3-3.9-0.6l-0.1,0c-1.6-0.3-2.9-0.6-3.9-0.9c-1-0.3-1.7-0.8-2.2-1.5c-0.5-0.8-0.6-1.6-0.6-2.7
							c0.1-1,0.3-2.3,0.6-3.9l0-0.1c0.3-1.6,0.6-2.9,0.9-3.9c0.3-1,0.8-1.7,1.5-2.2c0.8-0.5,1.6-0.6,2.7-0.6
							C218.2,433.8,219.5,434,221.1,434.3z M217.1,434.8c-0.9-0.1-1.5,0.1-2,0.4c-0.5,0.3-0.8,0.8-1.1,1.7c0,0.1-0.1,0.3-0.1,0.4
							l2.6,0.5l2.6-2.8C218.4,434.9,217.7,434.8,217.1,434.8z M220.4,435.3C220.4,435.3,220.4,435.4,220.4,435.3l-2.6,2.8l3.3,0.7
							l2.6-2.7c-0.7-0.2-1.6-0.4-2.8-0.6C220.8,435.4,220.6,435.3,220.4,435.3z M224.9,436.3l-2.5,2.6l4.4,0.9c0-0.2,0-0.3,0-0.5
							c0.1-0.9-0.1-1.5-0.4-2C226.1,436.9,225.7,436.6,224.9,436.3z M226.6,440.9l-5.4-1.1c0,0,0,0,0,0l-4.6-0.9c0,0,0,0,0,0l-3-0.6
							c-0.1,0.6-0.3,1.4-0.5,2.3c-0.3,1.7-0.6,2.9-0.6,3.8c-0.1,0.9,0.1,1.5,0.4,2c0.3,0.5,0.8,0.8,1.7,1.1c0.9,0.3,2.1,0.5,3.8,0.9
							c1.7,0.3,2.9,0.6,3.8,0.6c0.9,0.1,1.5-0.1,2-0.4c0.5-0.3,0.8-0.8,1.1-1.7c0.3-0.9,0.5-2.1,0.9-3.8
							C226.4,442.3,226.5,441.6,226.6,440.9z M220.6,442.1L220.6,442.1c0.4,0.4,0.8,0.7,1,1c0.2,0.3,0.4,0.7,0.3,1.1
							c-0.1,0.4-0.4,0.7-0.7,0.9c-0.3,0.2-0.7,0.4-1.2,0.5l-0.1,0c-0.5,0.2-0.9,0.4-1.3,0.4c-0.4,0.1-0.8,0.1-1.2-0.2
							c-0.3-0.3-0.4-0.8-0.3-1.1c0-0.4,0.1-0.9,0.2-1.4l0-0.1c0.1-0.6,0.2-1.1,0.3-1.4c0.1-0.4,0.3-0.8,0.8-0.9
							c0.5-0.2,0.9,0,1.2,0.2C219.9,441.4,220.3,441.7,220.6,442.1z M218.8,441.9C218.8,441.9,218.8,441.9,218.8,441.9
							C218.8,441.9,218.8,441.9,218.8,441.9z M218.8,442c0,0,0.1,0,0.2,0.1c0.2,0.2,0.5,0.4,0.9,0.8c0.4,0.4,0.7,0.7,0.9,0.9
							c0.1,0.2,0.1,0.2,0.1,0.3c0,0,0,0.1-0.2,0.2c-0.2,0.1-0.6,0.3-1.1,0.5c-0.6,0.2-0.9,0.4-1.2,0.4c-0.1,0-0.2,0-0.2,0
							c0,0,0-0.1,0-0.3c0-0.3,0.1-0.7,0.2-1.3c0.1-0.6,0.2-1,0.3-1.3C218.8,442,218.8,442,218.8,442z M218.2,445.1
							C218.2,445.1,218.2,445.1,218.2,445.1C218.2,445.1,218.2,445.1,218.2,445.1z M218.2,445.1
							C218.2,445.1,218.2,445.1,218.2,445.1C218.2,445.1,218.2,445.1,218.2,445.1z M218.9,441.9
							C218.9,441.9,218.9,441.9,218.9,441.9C218.9,441.9,218.9,441.9,218.9,441.9z"/>
					</g>
				</g>
			</g>
		</g>
	</g>
</g>
<g>
	<g>
		<g>
			<g>
				<path class="st28" d="M654.9,826.7c0.4-1.7,0.5-3.4,0.5-5.2c0-13.6-11.1-24.7-24.7-24.7c-13.6,0-24.7,11.1-24.7,24.7
					c0,1.8,0.2,3.5,0.5,5.2H654.9z"/>
				<g>
					<g>
						<path class="st28" d="M718.3,826.7c-2.2-8.2-9.7-14.2-18.6-14.2s-16.3,6-18.6,14.2H718.3z"/>
						<path class="st28" d="M700.7,826.7c0.3-1.7,0.5-3.4,0.5-5.2c0-15.8-12.8-28.6-28.6-28.6c-15.8,0-28.6,12.8-28.6,28.6
							c0,1.8,0.2,3.5,0.5,5.2H700.7z"/>
					</g>
				</g>
			</g>
			<g>
				<g>
					<path class="st28" d="M249.5,826.7c21.3-21.3,21.2-55.8,0-77.1c-21.3-21.3-55.9-21.3-77.2,0c-21.3,21.3-21.3,55.8,0,77.1H249.5
						z"/>
					<path class="st28" d="M297.4,826.7c0.9-3.4,1.3-6.9,1.3-10.5c0-23.3-18.9-42.1-42.1-42.1c-23.3,0-42.1,18.9-42.1,42.1
						c0,3.6,0.5,7.2,1.3,10.5H297.4z"/>
					<path class="st28" d="M331.8,826.7c-1.1-17.4-15.5-31.2-33.1-31.2c-17.7,0-32.1,13.8-33.1,31.2H331.8z"/>
					<path class="st28" d="M231.5,826.7c-2.5-18.5-18.3-32.9-37.6-32.9s-35.1,14.3-37.6,32.9H231.5z"/>
				</g>
			</g>
			<g>
				<g>
					<path class="st28" d="M435.8,826.7h76.6c10.1-9.9,16.4-23.8,16.4-39.1c0-30.2-24.5-54.7-54.7-54.7c-30.2,0-54.7,24.5-54.7,54.7
						C419.4,802.9,425.7,816.7,435.8,826.7z"/>
					<path class="st28" d="M586.8,826.7c-6.2-23.4-27.5-40.6-52.9-40.6c-25.3,0-46.6,17.2-52.9,40.6H586.8z"/>
					<path class="st28" d="M504.1,826.7h49.5c8.5-7.1,14-17.8,14-29.8c0-21.4-17.3-38.7-38.7-38.7c-21.4,0-38.7,17.3-38.7,38.7
						C490.2,808.9,495.6,819.6,504.1,826.7z"/>
					<path class="st28" d="M469.3,826.7c0-0.4,0-0.9,0-1.3c0-31.3-25.4-56.8-56.8-56.8c-31.3,0-56.8,25.4-56.8,56.8
						c0,0.4,0,0.9,0,1.3H469.3z"/>
					<path class="st28" d="M468.9,826.7c7.1-7.9,11.4-18.3,11.4-29.8c0-24.7-20-44.8-44.8-44.8c-24.7,0-44.8,20-44.8,44.8
						c0,11.4,4.3,21.8,11.4,29.8H468.9z"/>
					<path class="st28" d="M544.1,826.7c-7.7-18.4-25.9-31.4-47.1-31.4s-39.4,13-47.1,31.4H544.1z"/>
				</g>
			</g>
			<g>
				<g>
					<path class="st28" d="M166.3,826.7c4.4-5.9,7.1-13.1,7.1-21c0-19.3-15.6-34.9-34.9-34.9s-34.9,15.6-34.9,34.9
						c0,7.9,2.7,15.2,7.1,21H166.3z"/>
					<path class="st28" d="M209,826.7c-5.1-12.9-17.7-22-32.4-22c-14.7,0-27.3,9.1-32.4,22H209z"/>
					<path class="st28" d="M97.8,826.7C93.6,811.3,79.6,800,62.9,800c-16.7,0-30.7,11.3-34.9,26.6H97.8z"/>
					<path class="st28" d="M131.6,826.7c0.3-1.7,0.5-3.4,0.5-5.2c0-15.8-12.8-28.6-28.6-28.6c-15.8,0-28.6,12.8-28.6,28.6
						c0,1.8,0.2,3.5,0.5,5.2H131.6z"/>
					<path class="st28" d="M181.1,826.7c-5.7-9.6-16.1-16.1-28.1-16.1c-12,0-22.4,6.5-28.1,16.1H181.1z"/>
				</g>
			</g>
			<g>
				<g>
					
						<ellipse transform="matrix(0.2286 -0.9735 0.9735 0.2286 -119.0511 1090.0889)" class="st28" cx="628.3" cy="620.2" rx="33.8" ry="33.8"/>
					
						<ellipse transform="matrix(0.1241 -0.9923 0.9923 0.1241 -21.4924 1152.9286)" class="st28" cx="642.3" cy="588.6" rx="27.4" ry="27.4"/>
					<circle class="st28" cx="638.1" cy="681.2" r="56.9"/>
					<circle class="st28" cx="657.8" cy="624.8" r="29.4"/>
				</g>
				<g>
					<line class="st29" x1="638.1" y1="613.9" x2="638.1" y2="825.6"/>
					<line class="st29" x1="616.7" y1="685.1" x2="638.1" y2="709.3"/>
					<line class="st29" x1="623.3" y1="622" x2="638.1" y2="639.5"/>
					<line class="st29" x1="657.4" y1="655.6" x2="638.4" y2="675.5"/>
				</g>
			</g>
		</g>
		<g>
			<path id="XMLID_28_" class="st30" d="M477.2,826.5H266.2c-26,0-47.1-21.1-47.2-47.1l-0.8-514.6c0-26,21-47.1,47-47.1h211.1
				c26,0,47.1,21.1,47.2,47.1l0.8,514.6C524.3,805.5,503.2,826.5,477.2,826.5z"/>
			<path id="XMLID_27_" class="st31" d="M477.2,826.5H266.2c-26,0-47.1-21.1-47.2-47.1l-0.8-514.6c0-26,21-47.1,47-47.1h211.1
				c26,0,47.1,21.1,47.2,47.1l0.8,514.6C524.3,805.5,503.2,826.5,477.2,826.5z"/>
			<path id="XMLID_854_" class="st32" d="M469.9,826.5H258.8c-26,0-47.1-21.1-47.2-47.1l-0.8-514.6c0-26,21-47.1,47-47.1h211.1
				c26,0,47.1,21.1,47.2,47.1l0.8,514.6C516.9,805.5,495.9,826.5,469.9,826.5z"/>
			<path id="XMLID_84_" class="st33" d="M469.9,826.5H258.8c-26,0-47.1-21.1-47.2-47.1l-0.8-514.6c0-26,21-47.1,47-47.1h211.1
				c26,0,47.1,21.1,47.2,47.1l0.8,514.6C516.9,805.5,495.9,826.5,469.9,826.5z"/>
			<g id="XMLID_852_">
				<defs>
					<polygon id="XMLID_853_" points="229.1,748.4 228.4,294.9 498.6,294.9 499.3,748.4 					"/>
				</defs>
				<clipPath id="XMLID_00000059283679825432957270000005442228207104762791_">
					<use xlink:href="#XMLID_853_"  style="overflow:visible;"/>
				</clipPath>
			</g>
			<path id="XMLID_851_" class="st8" d="M388.6,780.2c0,13.7-11,24.7-24.7,24.7c-13.7,0-24.7-11.1-24.8-24.7
				c0-13.7,11-24.7,24.7-24.7C377.5,755.5,388.6,766.6,388.6,780.2z"/>
			<path id="XMLID_850_" class="st8" d="M415.7,265.8h-74.5c-2.8,0-5.1-2.3-5.1-5.1v0c0-2.8,2.3-5.1,5.1-5.1h74.5
				c2.8,0,5.1,2.3,5.1,5.1v0C420.8,263.5,418.5,265.8,415.7,265.8z"/>
			<path class="st8" d="M322.6,260.7c0,2.8-2.3,5.1-5.1,5.1c-2.8,0-5.1-2.3-5.1-5.1c0-2.8,2.3-5.1,5.1-5.1
				C320.3,255.6,322.6,257.9,322.6,260.7z"/>
			<path id="XMLID_848_" class="st8" d="M492.8,731.1H237.2c-5.8,0-10.5-4.7-10.5-10.5L226,301.3c0-5.8,4.7-10.5,10.5-10.5h255.6
				c5.8,0,10.5,4.7,10.5,10.5l0.7,419.4C503.3,726.4,498.6,731.1,492.8,731.1z"/>
			<path class="st30" d="M502.7,331l-0.1-29.7c0-5.8-4.7-10.5-10.5-10.5H236.5c-5.8,0-10.5,4.7-10.5,10.5l0.1,29.7H502.7z"/>
			<path class="st8" d="M226.1,377.9l0.5,342.7c0,5.8,4.7,10.5,10.5,10.5h255.6c5.8,0,10.5-4.7,10.5-10.5l-0.5-342.7H226.1z"/>
			<path id="XMLID_77_" class="st8" d="M441.1,320.4H265.9c-0.4,0-0.7-0.3-0.7-0.7v-18.3c0-0.4,0.3-0.7,0.7-0.7h175.2
				c0.4,0,0.7,0.3,0.7,0.7v18.3C441.8,320,441.5,320.4,441.1,320.4z"/>
			<path id="XMLID_76_" class="st30" d="M466.6,320.4h-17.9c-0.4,0-0.7-0.3-0.7-0.7v-18.3c0-0.4,0.3-0.7,0.7-0.7h17.9
				c0.4,0,0.7,0.3,0.7,0.7v18.3C467.4,320,467,320.4,466.6,320.4z"/>
			<path id="XMLID_75_" class="st8" d="M482.4,320.4L482.4,320.4c-5.4,0-9.7-4.3-9.7-9.7v-0.3c0-5.4,4.3-9.7,9.7-9.7l0,0
				c5.4,0,9.7,4.3,9.7,9.7v0.3C492.1,316,487.8,320.4,482.4,320.4z"/>
			<g id="XMLID_70_">
				<path id="XMLID_74_" class="st8" d="M255.4,320.8h-18.7c-0.4,0-0.7-0.3-0.7-0.7v-18.7c0-0.4,0.3-0.7,0.7-0.7h18.7
					c0.4,0,0.7,0.3,0.7,0.7v18.7C256.2,320.5,255.8,320.8,255.4,320.8z"/>
				<g id="XMLID_71_">
					<path id="XMLID_72_" class="st30" d="M244.1,317.5v-7.1h-1.2v-2.1h1.2V308c0-1.1,0.3-2.3,1.2-3.1c0.7-0.7,1.7-0.9,2.5-0.9
						c0.6,0,1.1,0.1,1.5,0.2l-0.1,2.2c-0.2-0.1-0.5-0.1-0.9-0.1c-0.9,0-1.3,0.7-1.3,1.6v0.5h1.8v2.1h-1.8v7.1H244.1z"/>
				</g>
			</g>
			<path id="XMLID_67_" class="st30" d="M430.5,305c-2.4-2.4-6.2-2.4-8.6,0c-2.4,2.4-2.4,6.2,0,8.6c2.1,2.1,5.3,2.3,7.6,0.8l3,3
				c0.5,0.5,1.3,0.5,1.8,0c0.5-0.5,0.5-1.3,0-1.8l-3-3C432.9,310.3,432.6,307.1,430.5,305z M429.3,312.4c-1.7,1.7-4.5,1.7-6.2,0
				c-1.7-1.7-1.7-4.5,0-6.2c1.7-1.7,4.5-1.7,6.2,0C431,307.9,431,310.7,429.3,312.4z"/>
			<g>
				<path id="XMLID_66_" class="st30" d="M364.7,356.2H258c-0.4,0-0.7-0.3-0.7-0.7v-10.3c0-0.4,0.3-0.7,0.7-0.7h106.7
					c0.4,0,0.7,0.3,0.7,0.7v10.3C365.4,355.8,365.1,356.2,364.7,356.2z"/>
				<path id="XMLID_64_" class="st34" d="M236.9,366.1h254.4c0.4,0,0.7,0.3,0.7,0.7v52.5c0,0.4-0.3,0.7-0.7,0.7H236.9
					c-0.4,0-0.7-0.3-0.7-0.7v-52.5C236.2,366.5,236.5,366.1,236.9,366.1z"/>
				<path id="XMLID_55_" class="st30" d="M249.1,356.2h-12.2c-0.4,0-0.7-0.3-0.7-0.7v-10.3c0-0.4,0.3-0.7,0.7-0.7h12.2
					c0.4,0,0.7,0.3,0.7,0.7v10.3C249.8,355.8,249.5,356.2,249.1,356.2z"/>
			</g>
			<g>
				<path id="XMLID_80_" class="st30" d="M364.7,468.3H258c-0.4,0-0.7-0.3-0.7-0.7v-10.3c0-0.4,0.3-0.7,0.7-0.7h106.7
					c0.4,0,0.7,0.3,0.7,0.7v10.3C365.4,467.9,365.1,468.3,364.7,468.3z"/>
				<path id="XMLID_50_" class="st30" d="M249.1,468.3h-12.2c-0.4,0-0.7-0.3-0.7-0.7v-10.3c0-0.4,0.3-0.7,0.7-0.7h12.2
					c0.4,0,0.7,0.3,0.7,0.7v10.3C249.8,467.9,249.5,468.3,249.1,468.3z"/>
				<g>
					<path class="st32" d="M270.4,588.4c-1.5-1.5-4-1.5-5.5,0l-0.1,0.1l-0.1-0.1c-1.5-1.5-4-1.5-5.5,0c-1.5,1.5-1.5,4,0,5.5l5.5,5.5
						l0,0l0,0l5.5-5.5C271.9,592.3,271.9,589.9,270.4,588.4z"/>
					<path class="st32" d="M285.5,586.7c-3.4,0-6.2,2.8-6.2,6.2c0,1.8,0.8,3.4,2,4.6l-1.6,2.4l5.7-0.8c3.4,0,6.2-2.8,6.2-6.2
						S288.9,586.7,285.5,586.7z"/>
					<path class="st32" d="M251.5,593.3c0,3.2-2.6,5.9-5.9,5.9c-3.2,0-5.9-2.6-5.9-5.9c0-3.2,2.6-5.9,5.9-5.9
						C248.9,587.4,251.5,590.1,251.5,593.3z"/>
					<polygon class="st32" points="306.6,587.2 306.6,598.7 313.2,593 					"/>
					<path class="st32" d="M297.1,598.7c0,0,0-7.6,9.5-7.6v3.8C306.6,594.9,299.7,593.2,297.1,598.7z"/>
				</g>
				<path id="XMLID_79_" class="st32" d="M236.9,477.6h254.4c0.4,0,0.7,0.3,0.7,0.7v98.5c0,0.4-0.3,0.7-0.7,0.7H236.9
					c-0.4,0-0.7-0.3-0.7-0.7v-98.5C236.2,477.9,236.5,477.6,236.9,477.6z"/>
				<g id="XMLID_611_">
					<circle id="XMLID_683_" class="st8" cx="364.7" cy="529" r="19.9"/>
					<path id="XMLID_674_" class="st30" d="M364.4,516.1c-4.6,0.2-8.4,4.1-8.5,8.8c0,1.9,0.5,3.6,1.4,5.1c1.8,2.9,7.6,12,7.6,12
						s5.8-9.2,7.6-11.9c0.9-1.4,1.5-3.1,1.5-4.9C373.8,520,369.5,515.8,364.4,516.1z M364.8,529.1c-2.2,0-4-1.8-4-4c0-2.2,1.8-4,4-4
						c2.2,0,4,1.8,4,4C368.8,527.3,367,529.1,364.8,529.1z"/>
				</g>
			</g>
			<g>
				<path id="XMLID_94_" class="st32" d="M364.7,623.7H258c-0.4,0-0.7-0.3-0.7-0.7v-10.3c0-0.4,0.3-0.7,0.7-0.7h106.7
					c0.4,0,0.7,0.3,0.7,0.7V623C365.4,623.4,365.1,623.7,364.7,623.7z"/>
				<path id="XMLID_93_" class="st32" d="M249.1,623.7h-12.2c-0.4,0-0.7-0.3-0.7-0.7v-10.3c0-0.4,0.3-0.7,0.7-0.7h12.2
					c0.4,0,0.7,0.3,0.7,0.7V623C249.8,623.4,249.5,623.7,249.1,623.7z"/>
				<path id="XMLID_92_" class="st32" d="M236.9,633h254.4c0.4,0,0.7,0.3,0.7,0.7v75.8c0,0.4-0.3,0.7-0.7,0.7H236.9
					c-0.4,0-0.7-0.3-0.7-0.7v-75.8C236.2,633.4,236.5,633,236.9,633z"/>
			</g>
			<g>
				<path class="st32" d="M270.4,431.9c-1.5-1.5-4-1.5-5.5,0l-0.1,0.1l-0.1-0.1c-1.5-1.5-4-1.5-5.5,0c-1.5,1.5-1.5,4,0,5.5l5.5,5.5
					l0,0l0,0l5.5-5.5C271.9,435.8,271.9,433.4,270.4,431.9z"/>
				<path class="st32" d="M285.5,430.2c-3.4,0-6.2,2.8-6.2,6.2c0,1.8,0.8,3.4,2,4.6l-1.6,2.4l5.7-0.8c3.4,0,6.2-2.8,6.2-6.2
					S288.9,430.2,285.5,430.2z"/>
				<path class="st32" d="M251.5,436.8c0,3.2-2.6,5.9-5.9,5.9c-3.2,0-5.9-2.6-5.9-5.9c0-3.2,2.6-5.9,5.9-5.9
					C248.9,430.9,251.5,433.6,251.5,436.8z"/>
				<polygon class="st32" points="306.6,430.7 306.6,442.2 313.2,436.5 				"/>
				<path class="st32" d="M297.1,442.2c0,0,0-7.6,9.5-7.6v3.8C306.6,438.4,299.7,436.7,297.1,442.2z"/>
			</g>
			<g id="XMLID_705_">
				<g id="XMLID_1585_">
					<path id="XMLID_1731_" class="st8" d="M384.9,671.4c0.1,10.8-8.5,19.6-19.3,19.7c-10.8,0.1-19.6-8.5-19.7-19.3
						c-0.1-10.8,8.5-19.6,19.3-19.7C376,652,384.8,660.7,384.9,671.4z"/>
				</g>
				<path id="XMLID_595_" class="st30" d="M374.3,666L374.3,666c-0.1-0.1-0.1-0.1-0.2-0.2c-2.4-2.2-6.1-2.1-8.4,0.3l-0.3,0.4
					l-0.4-0.3c-2.4-2.3-6.2-2.3-8.5,0.1l0,0c-2.3,2.4-2.3,6.2,0.1,8.5l6.6,6.4c1.4,1.3,3.5,1.3,4.8-0.1l6.4-6.6
					C376.7,672.1,376.7,668.3,374.3,666z"/>
			</g>
			<path id="XMLID_85_" class="st33" d="M492.8,731.1H237.2c-5.8,0-10.5-4.7-10.5-10.5L226,301.3c0-5.8,4.7-10.5,10.5-10.5h255.6
				c5.8,0,10.5,4.7,10.5,10.5l0.7,419.4C503.3,726.4,498.6,731.1,492.8,731.1z"/>
		</g>
		<g>
			<g>
				<path class="st35" d="M497.4,399.1c0,0-1.8-2.7-2.1-4.8c-0.4-2.1,0.7-3.6-0.6-4.1c-2.5-1-4.6-0.1-7-3.4
					c-2.4-3.4-3.9-8.7-6.4-7.3c-2.5,1.4-5.9,3-6.4,6.8c-0.5,3.8,4.7,11.9,7,13.4c2.3,1.5,7.3,2.8,9.1,6
					C492.8,408.9,497.4,399.1,497.4,399.1z"/>
				<path class="st36" d="M576.2,460.6c0,0,6.4,3.9,6.2,12.2c-0.2,8.3-3.4,14.6-14.9,14.1c-11.6-0.6-30.1-24.5-43-35.1
					c-12.9-10.6-37.6-47.1-37.6-47.1l10-7.7c0,0,27.8,29.3,39.8,38.8C555.6,450.5,576.2,460.6,576.2,460.6z"/>
				<path class="st31" d="M576.2,460.6c0,0,6.4,3.9,6.2,12.2c-0.2,8.3-3.4,14.6-14.9,14.1c-11.6-0.6-30.1-24.5-43-35.1
					c-12.9-10.6-37.6-47.1-37.6-47.1l10-7.7c0,0,27.8,29.3,39.8,38.8C555.6,450.5,576.2,460.6,576.2,460.6z"/>
				<path class="st35" d="M495.2,394.3c1.5-6.9-2.3-12.7-4.5-13.2c-2.6-0.6-1.1,4-0.2,6.7c1.3,3.8-2.1,9.7-2.1,9.7
					S494.7,396.7,495.2,394.3z"/>
			</g>
			<g id="XMLID_54_">
				<path id="XMLID_91_" class="st30" d="M447.5,454.8L447.5,454.8c-26-0.3-46.9-21.6-46.6-47.6v0c0.3-26,21.6-46.9,47.6-46.6l0,0
					c26,0.3,46.9,21.6,46.6,47.6l0,0C494.8,434.2,473.5,455.1,447.5,454.8z"/>
				<g id="XMLID_88_">
					<path id="XMLID_90_" class="st8" d="M440.4,398.9l-0.2,20.8c0,1-0.8,1.8-1.8,1.8l-10.3-0.1c-1,0-1.8-0.8-1.8-1.8l0.2-20.8
						c0-1,0.8-1.8,1.8-1.8l10.3,0.1C439.6,397.1,440.4,397.9,440.4,398.9z"/>
					<path id="XMLID_89_" class="st8" d="M472.4,419.8c0,1.1-0.9,1.9-2,1.9l-2.1,0v0l-22.9-0.2c-1.4,0-2.6-1.2-2.6-2.6l0.2-17.6
						c0,0,0-0.3,0-0.8l0-0.8c0-1.4,1.1-2.5,2.4-2.6c0.5-0.5,1.1-1,1.8-1.5c1.9-1.3,2.5-6.9,2.8-8.8c0.2-1.6,1.5-2.8,3.1-2.8l0.1,0
						c1.7,0,3.1,1.4,3.1,3.1c0,0,0.1,1.6,0.1,3.9c0,0,0,0,0,0c0,1.5-0.1,3.3-0.3,4.9l0.1,0c0,0.5-0.1,0.9-0.2,1.4l14.7,0.2
						c1.1,0,2,0.9,1.9,2l0,1.1C472.6,401.6,472.4,419.8,472.4,419.8z"/>
				</g>
			</g>
			<path class="st35" d="M451.2,456.3c0,0-3.2-1.4-4.7-3c-1.6-1.7-1.5-3.6-2.9-3.3c-2.8,0.6-4.1,2.6-8.2,1c-4.1-1.6-8.6-5.5-10-2.8
				c-1.4,2.8-3.5,6.1-1.8,9.8c1.8,3.7,11.1,7.9,14.1,7.9c3,0,8.1-1.8,11.6,0C452.9,467.7,451.2,456.3,451.2,456.3z"/>
			<path class="st37" d="M574.1,597.3c1.6,3.6-10.5,73.7-8,91.3c1.2,8.3-6,98.5-7.7,115.3h-14c0,0-0.6-97.3-4-115.9
				c-6.6-36.1-6.9-93.9,2.7-105.5C548.7,575.8,574.1,597.3,574.1,597.3z"/>
			<path class="st37" d="M598.2,588.2c10.5,36,2.4,82.9,5,100.5c1.2,8.3-6,98.5-7.7,115.3h-14c0,0-0.6-97.3-4-115.9
				c-6.6-36.1-13.9-88.1-13.9-88.1L598.2,588.2z"/>
			<path class="st36" d="M568.3,458.1c0,0-18.1,2.3-26,8.5c-9.3,7.3,4.8,14.1-3.3,22.3c0,0,5.8,15.1,8.2,29.4
				c2.4,14.3-11.4,90.1-13.5,111c0,0,26,12.9,48.6,12.9c22.6,0,32-14.2,32-14.2s-8.6-68.1-6.2-88.3c2.4-20.2,5.3-51.5,2.9-63.5
				c-2.4-12-18.7-13.9-18.7-13.9L568.3,458.1z"/>
			<path class="st35" d="M553.1,419.7c0,0-6.2,11.8-5.7,13.3c0.5,1.4,5.7,4.4,5.7,4.4V419.7z"/>
			<path class="st38" d="M553.1,419.7c0,0-6.2,11.8-5.7,13.3c0.5,1.4,5.7,4.4,5.7,4.4V419.7z"/>
			<path class="st35" d="M555.4,408c-0.3,2.4-1.3,6.6-2.3,11.7c-1,5.1-2,11-2.5,16.8c-0.5,5.5-2.4,9.5,1.7,11.6
				c2.2,1.1,8.4,3.2,9,13c0.5,9.4,24.8,7.3,25.8-9.9c0.7-11.6-16.3-35.9-16.3-35.9L555.4,408z"/>
			<path class="st36" d="M546.8,464.6c0,0,7.4-0.2,11.8,6.8c4.4,7,7.4,16.2-2.6,22.1c-10,5.9-39.8,5.9-56.3,4
				c-16.6-1.8-52.6-30.5-52.6-30.5l3.2-11c0,0,21.5,8.9,33.3,13.9c11.8,5,13.9,7.2,29.1,5.5C527.9,473.8,546.8,464.6,546.8,464.6z"
				/>
			<path class="st39" d="M554,419.7c-0.3,1.2,0.5,2.4,1.7,2.7c1.2,0.3,2.4-0.5,2.7-1.7c0.3-1.2-0.5-2.4-1.7-2.7
				C555.4,417.7,554.2,418.5,554,419.7z"/>
			<path class="st40" d="M557.4,438.8c-1.6,1.1-4,0.8-5.9,0"/>
			<path class="st40" d="M566.9,412.6c-1.9-0.4-3.9-0.7-5.8-0.4c-1.9,0.3-3.8,1.2-4.9,2.8"/>
			<path class="st39" d="M563.5,393.6c-5.8,2.4-9.1,10.7-9.1,23.6c0,19.7,13.6,12.3,15.9,20.2c1.4,4.8-2.5,7.5-5.3,11.1
				c-10.2,13-9,33.9-1.3,47.8c10.1,17.9,33.8,20.9,47.2,4.2c19.7-24.5-10.6-44.4-5.1-70.9C610.6,406.4,588.9,383.1,563.5,393.6z"/>
			<g>
				<path class="st39" d="M593.2,809.4c0,0-3,11.9-4.1,14.2c-1.1,2.2-1.1,4.1-1.1,4.1h-16.6c0,0,6.1-11.9,10-14.5
					C585.4,810.5,593.2,809.4,593.2,809.4z"/>
				<path class="st39" d="M596.1,803.9c0,0,3.2,3.9,1.7,7.7c-1.5,3.7-1.7,16-1.7,16h-5.8c0,0-1.1-11.4-2.6-11.9
					c-1.5-0.4-13,11.9-13,11.9h-9.7c0,0,3.9-4.7,8.2-11.9c5.3-8.8,9-11.9,9-11.9C588,803.9,596.1,803.9,596.1,803.9z"/>
				<path class="st39" d="M593.2,809.4l2.8-5.4l1.3-12.4c0,0-7.7,1.2-10.3,1.1c-1.6-0.1-6.3,0-6.3,0s-0.4,12.1-4,17.6L593.2,809.4z"
					/>
			</g>
			<g>
				<path class="st39" d="M556.3,809.4c0,0-3,11.9-4.1,14.2c-1.1,2.2-1.1,4.1-1.1,4.1h-16.6c0,0,6.1-11.9,10-14.5
					C548.5,810.5,556.3,809.4,556.3,809.4z"/>
				<path class="st39" d="M559.2,803.9c0,0,3.2,3.9,1.7,7.7c-1.5,3.7-1.7,16-1.7,16h-5.8c0,0-1.1-11.4-2.6-11.9
					c-1.5-0.4-13,11.9-13,11.9H528c0,0,3.9-4.7,8.2-11.9c5.3-8.8,9-11.9,9-11.9C551.1,803.9,559.2,803.9,559.2,803.9z"/>
				<path class="st39" d="M556.3,809.4l2.8-5.4l1.3-12.4c0,0-7.7,1.2-10.3,1.1c-1.6-0.1-6.3,0-6.3,0s-0.4,12.1-4,17.6L556.3,809.4z"
					/>
			</g>
			
				<rect x="543.4" y="790.4" transform="matrix(-1 -1.224647e-16 1.224647e-16 -1 1106.0537 1588.0205)" class="st41" width="19.2" height="7.2"/>
			
				<rect x="580.3" y="790.4" transform="matrix(-1 -1.224647e-16 1.224647e-16 -1 1179.8523 1588.0205)" class="st41" width="19.2" height="7.2"/>
		</g>
		<g>
			<g id="XMLID_81_">
				
					<ellipse id="XMLID_87_" transform="matrix(0.3989 -0.917 0.917 0.3989 -342.1159 624.1763)" class="st30" cx="305" cy="573" rx="41.9" ry="41.9"/>
				<polygon id="XMLID_86_" class="st8" points="329.2,560.7 311,572.6 299.6,565.6 280.9,585.4 299.5,576.5 311,583.5 				"/>
			</g>
			<g>
				<path class="st36" d="M157.7,596.7c0,0,0.3,52.9,7.5,65.8c8.5,15.2,43.4,53.4,43.4,53.4l-12.3,11c0,0-42.1-39.8-51.8-55.4
					c-9.5-15.3-24-55.4-19.5-74C127,589.6,144.2,572.3,157.7,596.7z"/>
			</g>
			<g>
				<path class="st31" d="M157.7,596.7c0,0,0.3,52.9,7.5,65.8c8.5,15.2,43.4,53.4,43.4,53.4l-12.3,11c0,0-42.1-39.8-51.8-55.4
					c-9.5-15.3-24-55.4-19.5-74C127,589.6,144.2,572.3,157.7,596.7z"/>
			</g>
			<path class="st35" d="M190.3,542.5c0,0,1.1,6.8,2.7,11c1.7,4.3-7.4,6.1-7.4,6.1L190.3,542.5z"/>
			<path class="st38" d="M190.3,542.5c0,0,1.1,6.8,2.7,11c1.7,4.3-7.4,6.1-7.4,6.1L190.3,542.5z"/>
			<path class="st42" d="M111.5,670.1l-9.4,8.1c-15.3,13.2-8.3,115.9-8.3,115.9l-56.5-2.4l5.5,23.4c0,0,38.3,11.3,60.1,8.4
				c3.9-0.5,12.2-5.8,15.3-10.5c20.5-31.3,20.2-87.8,20.2-87.8L111.5,670.1z"/>
			<path class="st31" d="M133.9,770c4.6-23.6,4.5-44.8,4.5-44.8l-27-55.1l-9.4,8.1c-5.2,4.5-7.8,19.1-9,36.5
				C105,734.5,118.3,753,133.9,770z"/>
			<g>
				<polygon class="st43" points="24,788.6 27.1,814.3 42.6,817.8 42.2,791.1 				"/>
			</g>
			<path class="st42" d="M85.1,723l8.1,9.4c13.2,15.3,105.9,2.1,105.9,2.1c-2.6,35-9.6,61.8-9.6,61.8l18.7-0.7
				c0,0,23.1-52.9,20.2-74.7c-0.5-3.9-5.4-12.8-10.5-15.3c-24.6-11.9-66.4-18.5-66.4-18.5L85.1,723z"/>
			<path class="st35" d="M142.9,554.5c0,0-4.1,9.7-9.5,18.6l21.5,19.4c0,0,1.1-16.8,11.6-24.6L142.9,554.5z"/>
			<g>
				<path class="st35" d="M187.1,566c-0.8,4.4-2.8,7.9-5.7,9.9c-2.9,2-14.7-3-20.7-1.6c-13.6,3.2-18.8-15.6-19.2-30.5
					c-0.1-5.3,2.7-11.2,6.1-15.2c3.9-4.7,12.6-5.6,18.3-4.6c3.4,0.6,6.9,2.9,9.6,5c2.4,1.9,15.4-0.7,16.8,2.1c0,0-0.6,4-1.4,9.4
					C189.5,550.2,187.4,564.2,187.1,566z"/>
			</g>
			<path class="st39" d="M189.4,544.4c0.1,1.1-0.8,2-1.8,2.1c-1.1,0.1-2-0.8-2.1-1.8c-0.1-1.1,0.8-2,1.8-2.1
				C188.4,542.5,189.3,543.3,189.4,544.4z"/>
			<path class="st39" d="M144,523.9c0,0-2.2-4.1,1-8.6c7.1-10,35-10.4,43.4,2.2c2,3,8.9,10.8,4,13.6c-5.7,3.3-23.7,1.2-28.2-1.4
				c-3.8-2.2,0.6,4.8,1,8.1c0,0-3.5,9.1-3.9,10.5c-0.5-6.6-2.1-5.4-5.1-8.7c-2.7-3.1-6.5,0.7-6,4.2c0.8,5.5,2.5,5.5,2.5,5.5
				c-0.5,2.8-5.6,6.7-7,9.2c-2.2-2.1-9.7-16.4-10.8-20C132.6,530.8,135.8,522.3,144,523.9z"/>
			<path class="st40" d="M178.8,561.4c2.2,2.7,6,3,9.1,2.1"/>
			<polygon class="st42" points="137.3,565.8 160.7,587.9 152,601.7 132.7,569 			"/>
			<path class="st36" d="M132.7,569c0,0-13.4,5.5-22.5,16.2C67.2,635.3,85.1,723,85.1,723s38.3,7.8,66.5-35.9l0.3-85.4L132.7,569z"
				/>
			<path class="st31" d="M136.2,598.6c0.8,16.9,6.9,34,15.5,50.4l0.2-44.7C146.3,603.1,140.9,601.5,136.2,598.6z"/>
			<g>
				<path class="st39" d="M182.4,808l-0.5,17l51.8,1.5c0,0-4.6-8-8.2-10.3c-5-3.2-20.1-8.3-20.1-8.3L182.4,808z"/>
				<polygon class="st43" points="182.4,808 207.9,810.3 210.7,796.6 187.8,794 				"/>
			</g>
			<path class="st35" d="M252.3,604.8c1.9-1.7,8.2-7.3,8.2-7.3s4.8-3.1,6.3-4.5c1.5-1.4,2.5,0.2,5.7,1.6c3.2,1.4,8.2,1.7,12.5-0.2
				c4.4-1.8,3.8,2.5,2.9,7.3c-0.9,4.7-3.1,10.9-6.6,11.3c-3.5,0.4-12,0-14.9-1.1c-2.9-1.1-10.1,1.1-10.1,1.1L252.3,604.8z"/>
			<g>
				<path class="st36" d="M131.6,583.6c0,0,46.2,25.6,61.1,25.7c17.4,0,67.8-11.7,67.8-11.7l3.6,16.1c0,0-55.3,17.3-73.7,18
					c-18,0.8-60.1-6.2-74.1-19.3C110.3,606.9,103.6,583.4,131.6,583.6z"/>
			</g>
			<path class="st40" d="M179.8,539.9c0.3-0.6,3.7-2.7,9.6,0.1"/>
			<path class="st39" d="M13.5,785.9L1.7,830c0,0,2.8,2,12.6-3c9.8-4.9,12.9-12.7,12.9-12.7L24,788.6L13.5,785.9z"/>
		</g>
		<g>
			<path class="st30" d="M530.2,235.4c2.3-4,3.6-8.7,3.6-13.7c0-15.5-12.6-28.1-28.1-28.1c-15.5,0-28.1,12.6-28.1,28.1
				c0,5,1.3,9.6,3.6,13.7H530.2z"/>
			<path class="st30" d="M566.1,235.4c0.2-1.2,0.3-2.4,0.3-3.6c0-11-8.9-20-20-20c-11,0-20,8.9-20,20c0,1.2,0.1,2.5,0.3,3.6H566.1z"
				/>
			<path class="st30" d="M589.9,235.4c-2.2-7.6-9.5-12.9-17.6-12.3c-7.3,0.5-13.2,5.6-15.1,12.3H589.9z"/>
			<path class="st30" d="M477.5,235.4c-2.2-7.6-9.5-12.9-17.6-12.3c-7.3,0.5-13.2,5.6-15.1,12.3H477.5z"/>
			<path class="st30" d="M454.9,235.4h44.5c0.7-2.2,1.1-4.6,1.1-7.1c0-12.9-10.5-23.4-23.4-23.4c-12.9,0-23.4,10.5-23.4,23.4
				c0,2.4,0.4,4.8,1.1,7C454.9,235.3,454.9,235.4,454.9,235.4z"/>
		</g>
		<g>
			<path class="st30" d="M589.5,354.8c-0.4-2-0.6-4-0.6-6c0-18.4,14.9-33.3,33.3-33.3c18.4,0,33.3,14.9,33.3,33.3
				c0,2.1-0.2,4.1-0.6,6H589.5z"/>
			<path class="st30" d="M566.4,354.8c2.9-10.1,12.6-17.2,23.5-16.3c9.7,0.7,17.6,7.5,20.1,16.3H566.4z"/>
			<path class="st30" d="M653.2,354.7c2.5-8.6,10.8-14.7,20.1-14c8.3,0.6,15,6.4,17.2,14H653.2z"/>
			<path class="st30" d="M674.3,354.8H630c-0.7-2.2-1.1-4.6-1.1-7c0-12.9,10.4-23.3,23.3-23.3s23.3,10.4,23.3,23.3
				c0,2.4-0.4,4.8-1.1,6.9C674.4,354.8,674.4,354.8,674.3,354.8z"/>
		</g>
	</g>
	<g>
		<rect x="70.9" y="215.4" class="st32" width="100.9" height="6"/>
		<rect x="70.9" y="244.2" class="st32" width="100.9" height="6"/>
		<rect x="70.9" y="273.1" class="st32" width="100.9" height="6"/>
		<polygon class="st30" points="35.2,217.5 44.6,225.7 59.9,206.1 44,219.6 		"/>
		<polygon class="st30" points="35.2,247.9 44.6,256 59.9,236.4 44,250 		"/>
		<polygon class="st30" points="35.2,278.2 44.6,286.4 59.9,266.8 44,280.3 		"/>
		<rect x="70.9" y="302.1" class="st32" width="100.9" height="6"/>
		<polygon class="st30" points="35.2,307.2 44.6,315.4 59.9,295.8 44,309.3 		"/>
	</g>
</g>
</svg>
